<svg width="70" height="24" viewBox="0 0 70 24" fill="none" xmlns="http://www.w3.org/2000/svg">
<path d="M11.976 14.024H5.688L4.68 17H0.384L6.48 0.151999H11.232L17.328 17H12.984L11.976 14.024ZM10.92 10.856L8.832 4.688L6.768 10.856H10.92ZM23.2873 5.84C23.7673 5.104 24.3673 4.528 25.0873 4.112C25.8073 3.68 26.6073 3.464 27.4873 3.464V7.808H26.3593C25.3353 7.808 24.5673 8.032 24.0553 8.48C23.5433 8.912 23.2873 9.68 23.2873 10.784V17H19.1833V3.608H23.2873V5.84ZM33.5529 5.84C34.0329 5.104 34.6329 4.528 35.3529 4.112C36.0729 3.68 36.8729 3.464 37.7529 3.464V7.808H36.6249C35.6009 7.808 34.8329 8.032 34.3209 8.48C33.8089 8.912 33.5529 9.68 33.5529 10.784V17H29.4489V3.608H33.5529V5.84ZM38.8986 10.28C38.8986 8.904 39.1546 7.696 39.6666 6.656C40.1946 5.616 40.9066 4.816 41.8026 4.256C42.6986 3.696 43.6986 3.416 44.8026 3.416C45.7466 3.416 46.5706 3.608 47.2746 3.992C47.9946 4.376 48.5466 4.88 48.9306 5.504V3.608H53.0346V17H48.9306V15.104C48.5306 15.728 47.9706 16.232 47.2506 16.616C46.5466 17 45.7226 17.192 44.7786 17.192C43.6906 17.192 42.6986 16.912 41.8026 16.352C40.9066 15.776 40.1946 14.968 39.6666 13.928C39.1546 12.872 38.8986 11.656 38.8986 10.28ZM48.9306 10.304C48.9306 9.28 48.6426 8.472 48.0666 7.88C47.5066 7.288 46.8186 6.992 46.0026 6.992C45.1866 6.992 44.4906 7.288 43.9146 7.88C43.3546 8.456 43.0746 9.256 43.0746 10.28C43.0746 11.304 43.3546 12.12 43.9146 12.728C44.4906 13.32 45.1866 13.616 46.0026 13.616C46.8186 13.616 47.5066 13.32 48.0666 12.728C48.6426 12.136 48.9306 11.328 48.9306 10.304ZM69.6836 3.608L61.2836 23.36H56.8676L59.9396 16.544L54.4916 3.608H59.0756L62.1716 11.984L65.2436 3.608H69.6836Z" fill="url(#paint0_linear_884_1560)"/>
<defs>
<linearGradient id="paint0_linear_884_1560" x1="0" y1="9" x2="70" y2="9" gradientUnits="userSpaceOnUse">
<stop stop-color="#FF3E3D"/>
<stop offset="1" stop-color="#466DFD"/>
</linearGradient>
</defs>
</svg>
