<svg width="69" height="69" viewBox="0 0 69 69" fill="none" xmlns="http://www.w3.org/2000/svg">
<circle opacity="0.5" cx="34.5" cy="34.5" r="34.5" fill="url(#paint0_radial_499_5341)"/>
<path d="M43.4647 37.8629C44.2964 36.2494 45.6409 36.2494 46.4687 37.8629L51.6451 48.0718C52.4767 49.6842 51.7964 51 50.1312 51H39.7048C38.0613 51 37.381 49.6842 38.1909 48.0718L43.4647 37.8629ZM33.4517 18.2093C34.2824 16.5969 35.6051 16.5969 36.4368 18.2093L37.5892 20.5476L40.3093 25.9172C40.6358 26.6747 40.8054 27.5054 40.8054 28.347C40.8054 29.1886 40.6358 30.0192 40.3093 30.7767L31.1838 48.5384C30.7764 49.2499 30.2254 49.8436 29.5756 50.2713C28.9258 50.699 28.1954 50.9486 27.4437 51H19.867C18.2046 51 17.5244 49.7054 18.3532 48.0718L33.4517 18.2093Z" fill="#E84142"/>
<defs>
<radialGradient id="paint0_radial_499_5341" cx="0" cy="0" r="1" gradientUnits="userSpaceOnUse" gradientTransform="translate(34.5 34.5) rotate(90) scale(34.5)">
<stop stop-color="white" stop-opacity="0.46"/>
<stop offset="1" stop-color="#7C93FF" stop-opacity="0.26"/>
</radialGradient>
</defs>
</svg>
