<svg width="69" height="69" viewBox="0 0 69 69" fill="none" xmlns="http://www.w3.org/2000/svg">
<circle opacity="0.5" cx="34.5" cy="34.5" r="34.5" fill="url(#paint0_radial_499_5324)"/>
<path d="M51.4914 38.1112C49.2201 47.2232 39.9882 52.7623 30.8892 50.4908C21.7769 48.2194 16.2378 38.9879 18.5093 29.889C20.7807 20.777 29.9992 15.238 39.1115 17.5095C48.2104 19.7675 53.7629 28.9991 51.4914 38.1112Z" fill="url(#paint1_linear_499_5324)"/>
<path d="M43.0939 31.8816C43.426 29.6238 41.7127 28.402 39.3486 27.5918L40.1189 24.5238L38.2596 24.059L37.5158 27.0473C37.0244 26.9277 36.5197 26.8082 36.015 26.702L36.7588 23.7004L34.8994 23.2355L34.1424 26.2902C33.7307 26.1973 33.3322 26.1043 32.9471 26.0113V25.998L30.3705 25.3605L29.8791 27.3527C29.8791 27.3527 31.2604 27.6715 31.2338 27.6848C31.9908 27.8707 32.1236 28.3754 32.0971 28.7738L31.2205 32.2668C31.2736 32.2801 31.34 32.2934 31.4197 32.3332C31.3533 32.3199 31.2869 32.3066 31.2205 32.2801L29.9986 37.1676C29.9057 37.3934 29.6666 37.7387 29.1486 37.6059C29.1619 37.6324 27.7939 37.2738 27.7939 37.2738L26.8643 39.4121L29.2947 40.0231C29.7463 40.1426 30.1846 40.2488 30.6229 40.3684L29.8525 43.4629L31.7119 43.9277L32.4822 40.8598C32.9869 40.9926 33.4916 41.1254 33.9697 41.2449L33.2127 44.2996L35.0721 44.7645L35.8424 41.6699C39.0299 42.2676 41.4205 42.0285 42.4166 39.1465C43.2268 36.8356 42.3768 35.4941 40.7033 34.6176C41.9385 34.3387 42.8549 33.5285 43.0939 31.8816ZM38.8307 37.8582C38.2596 40.1691 34.3549 38.9207 33.0932 38.602L34.1158 34.4981C35.3775 34.8168 39.4416 35.441 38.8307 37.8582ZM39.415 31.8418C38.8838 33.9535 35.6432 32.8777 34.5939 32.6121L35.5236 28.8934C36.5729 29.159 39.9596 29.6504 39.415 31.8418Z" fill="white"/>
<defs>
<radialGradient id="paint0_radial_499_5324" cx="0" cy="0" r="1" gradientUnits="userSpaceOnUse" gradientTransform="translate(34.5 34.5) rotate(90) scale(34.5)">
<stop stop-color="white" stop-opacity="0.46"/>
<stop offset="1" stop-color="#7C93FF" stop-opacity="0.26"/>
</radialGradient>
<linearGradient id="paint1_linear_499_5324" x1="34.9908" y1="16.992" x2="34.9908" y2="50.9967" gradientUnits="userSpaceOnUse">
<stop stop-color="#F9AA4B"/>
<stop offset="1" stop-color="#F7931A"/>
</linearGradient>
</defs>
</svg>
