<svg width="70" height="70" viewBox="0 0 70 70" fill="none" xmlns="http://www.w3.org/2000/svg">
<g clip-path="url(#clip0_363_685)">
<path d="M32.1013 36.8751C33.8949 35.8395 36.803 35.8395 38.5965 36.8751L62.4123 50.6249C64.2058 51.6605 64.2058 53.3396 62.4123 54.3752L38.5965 68.1249C36.803 69.1605 33.8949 69.1605 32.1013 68.1249L8.28562 54.3752C6.49205 53.3396 6.49201 51.6605 8.28562 50.6249L32.1013 36.8751Z" fill="#5EEAD4"/>
<g filter="url(#filter0_f_363_685)">
<path d="M32.1013 35.6249C33.8949 34.5894 36.803 34.5894 38.5965 35.6249L62.4123 49.3751C64.2058 50.4103 64.2058 52.0894 62.4123 53.125L38.5965 66.8751C36.803 67.9103 33.8949 67.9103 32.1013 66.8751L8.28562 53.125C6.49205 52.0894 6.49201 50.4103 8.28562 49.3751L32.1013 35.6249Z" fill="#5EEAD4"/>
</g>
<path d="M32.101 31.2499C33.8947 30.2144 36.8027 30.2144 38.5962 31.2499L62.9532 45.3124C66.5402 47.3837 66.5402 50.7414 62.9532 52.8123L38.5963 66.8751C36.8027 67.9103 33.8947 67.9103 32.1011 66.8751L7.7441 52.8123C4.15691 50.7414 4.15691 47.3837 7.7441 45.3124L32.101 31.2499Z" fill="url(#paint0_linear_363_685)"/>
<path d="M32.1013 31.8749C33.8949 30.8394 36.8029 30.8394 38.5965 31.8749L61.3296 45.0001C63.1235 46.0353 63.1235 47.7144 61.3296 48.75L38.5965 61.875C36.8029 62.9107 33.8949 62.9107 32.1013 61.875L9.36814 48.75C7.57457 47.7144 7.57453 46.0353 9.36814 45.0001L32.1013 31.8749Z" fill="url(#paint1_linear_363_685)"/>
<path d="M32.1013 39.076C33.8949 38.0404 36.8029 38.0404 38.5965 39.076L49.2231 45.2115C51.0167 46.2467 51.0167 47.9258 49.2231 48.9614L38.5965 55.0967C36.8029 56.1324 33.8949 56.1324 32.1013 55.0967L21.4746 48.9614C19.681 47.9258 19.681 46.2467 21.4746 45.2115L32.1013 39.076Z" fill="url(#paint2_linear_363_685)"/>
<path fill-rule="evenodd" clip-rule="evenodd" d="M43.8738 33.1295C44.0114 33.2028 44.1469 33.2779 44.2803 33.3549C44.4137 33.4319 44.5438 33.5102 44.6706 33.5896C44.9572 33.769 44.9374 34.0486 44.6266 34.214C44.3157 34.3795 43.8315 34.3681 43.545 34.1886C43.4323 34.1181 43.3165 34.0484 43.1978 33.9799C43.0791 33.9113 42.9585 33.8445 42.8362 33.7795C42.5254 33.614 42.5057 33.3344 42.7922 33.155C43.0787 32.9755 43.563 32.9641 43.8738 33.1295ZM40.5124 32.2931C40.3426 32.5166 39.8912 32.6184 39.504 32.5204C37.6487 32.051 35.6299 31.8632 33.6429 31.9577C33.2216 31.9777 32.8519 31.7968 32.8172 31.5535C32.7825 31.3103 33.0959 31.0968 33.5173 31.0767C35.7533 30.9704 38.0269 31.1816 40.1186 31.7109C40.5058 31.8089 40.6821 32.0695 40.5124 32.2931ZM47.4004 37.8654C47.8218 37.8454 48.1915 38.0263 48.2261 38.2696C48.4105 39.5606 48.0444 40.8732 47.1276 42.0808C46.958 42.3044 46.5066 42.4062 46.1194 42.3082C45.7321 42.2102 45.5558 41.9495 45.7258 41.726C46.5389 40.6549 46.8642 39.4893 46.7004 38.3421C46.6659 38.0989 46.9791 37.8855 47.4004 37.8654ZM44.6266 43.6245C44.9374 43.7899 44.9572 44.0695 44.6706 44.2489C44.5438 44.3283 44.4137 44.4066 44.2803 44.4836C44.1469 44.5607 44.0114 44.6358 43.8738 44.709C43.563 44.8745 43.0787 44.863 42.7922 44.6835C42.5057 44.5041 42.5254 44.2245 42.8362 44.059C42.9585 43.994 43.0791 43.9272 43.1978 43.8586C43.3165 43.7901 43.4323 43.7204 43.545 43.6499C43.8315 43.4704 44.3157 43.459 44.6266 43.6245ZM26.4929 33.155C26.7794 33.3344 26.7597 33.614 26.4489 33.7795C26.3266 33.8445 26.2061 33.9113 26.0873 33.9799C25.9686 34.0484 25.8529 34.1181 25.7402 34.1886C25.4536 34.3681 24.9694 34.3795 24.6585 34.214C24.3477 34.0486 24.328 33.769 24.6145 33.5896C24.7413 33.5102 24.8714 33.4319 25.0048 33.3549C25.1382 33.2779 25.2737 33.2028 25.4113 33.1295C25.7221 32.9641 26.2064 32.9755 26.4929 33.155ZM23.1657 35.5304C23.5529 35.6283 23.7292 35.889 23.5595 36.1125C22.7463 37.1836 22.421 38.3492 22.5847 39.4964C22.6194 39.7396 22.306 39.9531 21.8847 39.9731C21.4633 39.9932 21.0937 39.8122 21.059 39.569C20.8748 38.2779 21.2406 36.9653 22.1573 35.7577C22.3271 35.5341 22.7785 35.4324 23.1657 35.5304ZM36.4679 46.2852C36.5026 46.5284 36.1892 46.7416 35.7678 46.7618C33.5318 46.8681 31.2582 46.6568 29.1666 46.1277C28.7794 46.0295 28.6031 45.7688 28.7728 45.5453C28.9425 45.3218 29.3939 45.22 29.7811 45.3182C31.6364 45.7876 33.6552 45.9752 35.6422 45.8809C36.0635 45.8607 36.4332 46.0416 36.4679 46.2852ZM24.6585 43.6245C24.9694 43.459 25.4536 43.4704 25.7402 43.6499C25.8529 43.7205 25.9686 43.7901 26.0873 43.8586C26.2061 43.9272 26.3266 43.994 26.4489 44.059C26.7597 44.2245 26.7794 44.5041 26.4929 44.6835C26.2064 44.863 25.7221 44.8745 25.4113 44.709C25.2737 44.6358 25.1382 44.5607 25.0048 44.4836C24.8714 44.4066 24.7413 44.3283 24.6145 44.2489C24.328 44.0695 24.3477 43.7899 24.6585 43.6245Z" fill="#12D9E5"/>
<path fill-rule="evenodd" clip-rule="evenodd" d="M49.1014 29.8507C49.3168 29.9654 49.529 30.0831 49.7381 30.2038C49.9473 30.3245 50.151 30.4471 50.3497 30.5716C50.636 30.751 50.6163 31.0306 50.3058 31.196C49.9948 31.3614 49.5106 31.3501 49.2239 31.1706C49.0395 31.055 48.8501 30.941 48.6554 30.8288C48.4611 30.7166 48.2637 30.6072 48.0635 30.5007C47.7526 30.3352 47.7328 30.0556 48.0196 29.8762C48.3063 29.6967 48.7905 29.6853 49.1014 29.8507ZM43.6135 28.211C43.4437 28.4345 42.9923 28.5363 42.6051 28.4383C39.5658 27.6692 36.2592 27.3617 33.0054 27.5165C32.584 27.5365 32.2143 27.3556 32.1796 27.1123C32.1449 26.8691 32.4583 26.6556 32.8797 26.6356C36.3826 26.469 39.944 26.7999 43.2197 27.6288C43.6069 27.7268 43.7832 27.9875 43.6135 28.211ZM55.0927 37.4974C55.514 37.4774 55.8838 37.6583 55.9183 37.9016C56.2069 39.924 55.6339 41.9802 54.198 43.8714C54.0283 44.0949 53.5769 44.1967 53.1897 44.0987C52.8024 44.0007 52.6261 43.7401 52.7962 43.5165C54.128 41.7618 54.6606 39.8527 54.3927 37.9741C54.3581 37.7309 54.6713 37.5174 55.0927 37.4974ZM21.2653 29.8762C21.5518 30.0556 21.5321 30.3352 21.2213 30.5007C21.0211 30.6072 20.8237 30.7166 20.6293 30.8288C20.4349 30.941 20.2454 31.055 20.0609 31.1706C19.7744 31.3501 19.2901 31.3614 18.9793 31.196C18.6684 31.0306 18.6487 30.751 18.9352 30.5716C19.1339 30.4471 19.3377 30.3245 19.5468 30.2038C19.7559 30.0831 19.9682 29.9654 20.1837 29.8507C20.4945 29.6853 20.9788 29.6967 21.2653 29.8762ZM50.3058 46.6424C50.6163 46.808 50.636 47.0876 50.3497 47.267C50.151 47.3913 49.9473 47.5143 49.7381 47.635C49.529 47.7557 49.3168 47.8733 49.1014 47.9877C48.7905 48.1533 48.3063 48.142 48.0196 47.9626C47.7328 47.7831 47.7526 47.5035 48.0635 47.3379C48.2637 47.2316 48.4611 47.1221 48.6554 47.0099C48.8501 46.8978 49.0395 46.7838 49.2239 46.668C49.5106 46.4885 49.9948 46.4773 50.3058 46.6424ZM16.0951 33.7399C16.4823 33.8379 16.6586 34.0985 16.4889 34.3221C15.1567 36.0768 14.6241 37.9859 14.8922 39.8645C14.9269 40.1078 14.6135 40.3212 14.1922 40.3412C13.7708 40.3612 13.4011 40.1803 13.3664 39.9371C13.0779 37.9146 13.651 35.8585 15.0868 33.9672C15.2565 33.7437 15.7079 33.6419 16.0951 33.7399ZM37.1052 50.7262C37.1399 50.9694 36.8265 51.183 36.4052 51.2032C32.9023 51.3697 29.3409 51.039 26.0652 50.2097C25.678 50.1119 25.5017 49.8512 25.6714 49.6278C25.8411 49.4043 26.2926 49.3024 26.6798 49.4003C29.7191 50.1694 33.0257 50.4767 36.2795 50.3219C36.7008 50.3022 37.0705 50.483 37.1052 50.7262ZM18.9793 46.6424C19.2901 46.4773 19.7743 46.4885 20.0609 46.668C20.2454 46.7838 20.4349 46.8978 20.6293 47.0099C20.8237 47.1221 21.0211 47.2316 21.2213 47.3379C21.5321 47.5035 21.5518 47.7831 21.2653 47.9626C20.9788 48.142 20.4945 48.1533 20.1837 47.9877C19.9682 47.8733 19.7559 47.7557 19.5468 47.635C19.3377 47.5143 19.1339 47.3913 18.9352 47.267C18.6487 47.0876 18.6684 46.808 18.9793 46.6424Z" fill="#12D9E5"/>
<path fill-rule="evenodd" clip-rule="evenodd" d="M45.9268 32.4044C39.6946 28.8062 29.5904 28.8062 23.3583 32.4044C17.1262 36.0025 17.1262 41.8361 23.3583 45.434C29.5904 49.0323 39.6946 49.0323 45.9268 45.434C52.1586 41.8361 52.1586 36.0025 45.9268 32.4044ZM22.2758 31.7794C29.1057 27.8361 40.1793 27.8361 47.0091 31.7794C53.839 35.7227 53.839 42.1159 47.0091 46.0591C40.1793 50.0024 29.1057 50.0024 22.2758 46.0591C15.4458 42.1159 15.4458 35.7227 22.2758 31.7794Z" fill="#12D9E5"/>
<path d="M26.25 12.5C26.25 11.8096 26.8096 11.25 27.5 11.25C28.1903 11.25 28.75 11.8096 28.75 12.5V41.25C28.75 41.9404 28.1903 42.5 27.5 42.5C26.8096 42.5 26.25 41.9404 26.25 41.25V12.5Z" fill="url(#paint3_linear_363_685)" fill-opacity="0.5"/>
<path d="M28.75 12.5C28.75 13.1903 28.1903 13.75 27.5 13.75C26.8096 13.75 26.25 13.1903 26.25 12.5C26.25 11.8096 26.8096 11.25 27.5 11.25C28.1903 11.25 28.75 11.8096 28.75 12.5Z" fill="#FFC700"/>
<path d="M28.75 20C28.75 20.6904 28.1903 21.25 27.5 21.25C26.8096 21.25 26.25 20.6904 26.25 20C26.25 19.3097 26.8096 18.75 27.5 18.75C28.1903 18.75 28.75 19.3097 28.75 20Z" fill="#FFC700"/>
<path d="M28.75 27.5C28.75 28.1903 28.1903 28.75 27.5 28.75C26.8096 28.75 26.25 28.1903 26.25 27.5C26.25 26.8096 26.8096 26.25 27.5 26.25C28.1903 26.25 28.75 26.8096 28.75 27.5Z" fill="#FFC700"/>
<path d="M41.2505 21.25C41.2505 20.5596 41.8101 20 42.5005 20C43.1908 20 43.7505 20.5596 43.7505 21.25V46.2498C43.7505 46.9404 43.1908 47.4999 42.5005 47.4999C41.8101 47.4999 41.2505 46.9404 41.2505 46.2498V21.25Z" fill="url(#paint4_linear_363_685)" fill-opacity="0.5"/>
<path d="M43.7505 21.25C43.7505 21.9403 43.1908 22.5 42.5005 22.5C41.8101 22.5 41.2505 21.9403 41.2505 21.25C41.2505 20.5596 41.8101 20 42.5005 20C43.1908 20 43.7505 20.5596 43.7505 21.25Z" fill="#FFC700"/>
<path d="M43.7505 28.75C43.7505 29.4404 43.1908 30 42.5005 30C41.8101 30 41.2505 29.4404 41.2505 28.75C41.2505 28.0597 41.8101 27.5 42.5005 27.5C43.1908 27.5 43.7505 28.0597 43.7505 28.75Z" fill="#FFC700"/>
<path d="M33.75 2.5C33.75 1.80964 34.3097 1.25 35 1.25C35.6904 1.25 36.25 1.80964 36.25 2.5V41.25C36.25 41.9403 35.6904 42.5 35 42.5C34.3097 42.5 33.75 41.9403 33.75 41.25V2.5Z" fill="url(#paint5_linear_363_685)" fill-opacity="0.5"/>
<path d="M36.25 2.5C36.25 3.19036 35.6904 3.75 35 3.75C34.3097 3.75 33.75 3.19036 33.75 2.5C33.75 1.80964 34.3097 1.25 35 1.25C35.6904 1.25 36.25 1.80964 36.25 2.5Z" fill="#FFC700"/>
<path d="M36.25 9.99999C36.25 10.6903 35.6904 11.25 35 11.25C34.3097 11.25 33.75 10.6903 33.75 9.99999C33.75 9.30964 34.3097 8.75 35 8.75C35.6904 8.75 36.25 9.30964 36.25 9.99999Z" fill="#FFC700"/>
<path d="M36.25 17.5C36.25 18.1903 35.6904 18.75 35 18.75C34.3097 18.75 33.75 18.1903 33.75 17.5C33.75 16.8096 34.3097 16.25 35 16.25C35.6904 16.25 36.25 16.8096 36.25 17.5Z" fill="#FFC700"/>
<path d="M36.25 25C36.25 25.6903 35.6904 26.25 35 26.25C34.3097 26.25 33.75 25.6903 33.75 25C33.75 24.3096 34.3097 23.75 35 23.75C35.6904 23.75 36.25 24.3096 36.25 25Z" fill="#FFC700"/>
</g>
<defs>
<filter id="filter0_f_363_685" x="1.94043" y="29.8483" width="66.8169" height="42.8032" filterUnits="userSpaceOnUse" color-interpolation-filters="sRGB">
<feFlood flood-opacity="0" result="BackgroundImageFix"/>
<feBlend mode="normal" in="SourceGraphic" in2="BackgroundImageFix" result="shape"/>
<feGaussianBlur stdDeviation="2.5" result="effect1_foregroundBlur_363_685"/>
</filter>
<linearGradient id="paint0_linear_363_685" x1="68.747" y1="48.125" x2="18.1221" y2="77.3531" gradientUnits="userSpaceOnUse">
<stop stop-color="#626AE9"/>
<stop offset="1" stop-color="#A7B5F6"/>
</linearGradient>
<linearGradient id="paint1_linear_363_685" x1="63.9761" y1="46.0712" x2="20.5833" y2="71.1244" gradientUnits="userSpaceOnUse">
<stop stop-color="#4B4DDC"/>
<stop offset="1" stop-color="#626AE9"/>
</linearGradient>
<linearGradient id="paint2_linear_363_685" x1="52.1187" y1="46.6155" x2="26.6993" y2="61.2917" gradientUnits="userSpaceOnUse">
<stop stop-color="#3F3FC2"/>
<stop offset="1" stop-color="#34359D"/>
</linearGradient>
<linearGradient id="paint3_linear_363_685" x1="27.5" y1="11.25" x2="27.5" y2="42.5" gradientUnits="userSpaceOnUse">
<stop stop-color="#FFB800"/>
<stop offset="1" stop-color="#FFB800" stop-opacity="0"/>
</linearGradient>
<linearGradient id="paint4_linear_363_685" x1="42.5005" y1="20" x2="42.5005" y2="47.4999" gradientUnits="userSpaceOnUse">
<stop stop-color="#FFB800"/>
<stop offset="1" stop-color="#FFB800" stop-opacity="0"/>
</linearGradient>
<linearGradient id="paint5_linear_363_685" x1="35" y1="1.25" x2="35" y2="42.5" gradientUnits="userSpaceOnUse">
<stop stop-color="#FFB800"/>
<stop offset="1" stop-color="#FFB800" stop-opacity="0"/>
</linearGradient>
<clipPath id="clip0_363_685">
<rect width="70" height="70" fill="white"/>
</clipPath>
</defs>
</svg>
