<svg width="1288" height="403" viewBox="0 0 1288 403" fill="none" xmlns="http://www.w3.org/2000/svg">
<path d="M1287 296.986C1287 295.335 1286.1 293.817 1284.64 293.031C1281.9 291.549 1278.52 293.233 1278.06 296.312L1271.34 340.64C1271.15 341.946 1270.41 343.11 1269.32 343.85C1266.42 345.808 1262.48 344.058 1261.98 340.598L1255.34 293.967C1255.16 292.719 1254.59 291.561 1253.7 290.667C1250.64 287.601 1245.44 288.796 1244.02 292.885L1242.96 295.98C1241.32 300.738 1235.02 301.725 1232 297.699L1231.88 297.538C1231.38 296.867 1231.04 296.087 1230.89 295.262C1229.74 288.99 1220.59 289.502 1220.14 295.862L1216.73 344.965C1216.37 350.178 1209.14 351.197 1207.35 346.287C1207.23 345.946 1207.14 345.592 1207.1 345.232L1201.87 303.591C1201.17 298.008 1193.47 297.074 1191.45 302.329C1191.28 302.771 1191.17 303.236 1191.12 303.708C1190.23 312.339 1177.59 312.437 1176.87 303.789L1175.31 285.07C1175.26 284.48 1175.09 283.906 1174.83 283.378C1172.72 279.205 1166.45 280.483 1166.14 285.149L1160.26 374.1C1159.95 378.727 1153.87 380.203 1151.48 376.229C1151.35 376.013 1151.23 375.786 1151.14 375.551L1144.06 357.919C1143.56 356.654 1142.82 355.495 1141.89 354.5L1137.55 349.864C1136.1 348.311 1135.2 346.325 1134.98 344.21L1132.58 320.727C1131.79 312.943 1120.56 312.644 1119.35 320.374C1117.83 325.805 1109.88 324.963 1109.53 319.335L1106.03 262.582C1105.64 256.279 1096.57 255.709 1095.4 261.914L1090.59 284.043C1089.86 287.427 1085.02 287.415 1084.31 284.027C1083.53 280.37 1078.19 280.761 1077.95 284.493L1076.62 305.645C1076.15 313.198 1065.07 313.322 1064.43 305.781L1063.46 294.46L1057.27 229.361C1056.79 224.285 1049.88 223.163 1047.81 227.826C1047.6 228.302 1047.47 228.809 1047.42 229.326L1041.08 291.277C1040.74 294.663 1035.99 295.126 1035 291.871C1034.06 288.804 1029.66 288.978 1028.97 292.11L1026.25 304.375C1025.42 308.16 1020.21 308.624 1018.71 305.047L1018.19 303.784C1017.12 301.236 1013.59 301.037 1012.25 303.45C1010.72 306.197 1006.58 305.46 1006.09 302.354L1005.13 296.245C1004.17 290.091 995.294 290.133 994.388 296.296L991.611 315.181L983.628 359.348L975.644 403L968.645 390.874C967.994 389.746 967.548 388.512 967.329 387.229L959.677 342.483L953.494 224.449C953.194 218.726 945.04 217.983 943.71 223.558L940.267 245.29C939.522 249.989 932.72 249.877 932.13 245.156C931.526 240.314 924.488 240.375 923.967 245.227L923.382 250.679C922.847 255.667 915.635 255.797 914.92 250.832C914.251 246.187 907.666 245.871 906.555 250.43L904.602 258.441C904.102 260.492 902.537 262.116 900.506 262.691L895.809 264.022C891.117 264.868 886.45 262.414 884.488 258.068L880.493 249.216C880.061 248.26 879.769 247.247 879.624 246.208L871.93 190.955C871.883 190.616 871.809 190.281 871.711 189.953L869.359 182.121C867.95 177.43 861.196 177.773 860.269 182.582L859.213 188.064C858.48 191.871 853.049 191.923 852.244 188.13C851.412 184.216 845.751 184.446 845.24 188.414L844.743 192.263C844.1 197.249 836.839 197.127 836.363 192.122L831.941 145.559L823.986 325.354C823.967 325.769 823.897 326.18 823.776 326.577C822.176 331.855 814.452 330.99 814.059 325.488L807.991 240.525L800.455 193.007C800.161 191.159 799.401 189.415 798.246 187.943L793.986 182.51C792.723 180.9 790.908 179.814 788.891 179.463L788.644 179.42C785.807 178.927 783.467 176.921 782.546 174.192L782.072 172.789C779.945 166.485 771.174 166.101 768.502 172.194C768.218 172.841 768.03 173.526 767.943 174.227L765.116 197.19C764.438 202.693 756.434 202.614 755.864 197.099L754.894 187.71C754.477 183.676 748.651 183.538 748.044 187.548C747.439 191.54 741.648 191.429 741.196 187.417L736.979 149.931C736.597 146.54 732.751 144.766 729.924 146.678C728.804 147.435 728.08 148.651 727.948 149.997L720.91 221.933C720.615 224.951 716.948 226.273 714.796 224.137C713.365 222.718 711.047 222.751 709.657 224.21L709.415 224.465C707.218 226.771 703.334 225.654 702.698 222.533L697.131 195.212C696.678 192.993 694.212 191.841 692.221 192.919C690.235 193.993 687.775 192.851 687.314 190.641L682.606 168.083C681.902 164.712 677.253 164.302 675.971 167.498C674.745 170.552 670.358 170.356 669.409 167.205L668.861 165.382C667.63 161.293 661.77 161.509 660.843 165.676L657.582 180.334C656.94 183.219 653.724 184.696 651.118 183.303L650.834 183.151C649.329 182.346 647.48 182.582 646.225 183.738C643.796 185.975 639.856 184.483 639.517 181.198L633.858 126.314C633.377 121.645 627.228 120.279 624.814 124.304C624.521 124.794 624.316 125.331 624.208 125.891L617.984 158.198C617.418 161.135 613.537 161.842 611.973 159.293C610.535 156.95 607.026 157.312 606.096 159.898L605.533 161.464C604.125 165.382 598.441 164.917 597.688 160.822L596.244 152.962C595.426 148.509 589.071 148.436 588.15 152.868C587.256 157.166 581.158 157.278 580.107 153.016L577.401 142.034C576.834 139.737 574.971 137.988 572.643 137.568C570.15 137.118 567.644 138.284 566.381 140.48L560.724 150.315C560.577 150.572 560.411 150.818 560.229 151.051C557.122 155.018 550.835 153.845 549.367 149.025L547.304 142.246C546.326 139.033 542.061 138.388 540.177 141.168C538.596 143.499 535.164 143.506 533.574 141.181L529.195 134.779C529 134.494 528.831 134.191 528.692 133.875C526.425 128.735 518.851 129.738 518 135.291L515.567 151.166C514.86 155.778 508.483 156.437 506.847 152.067C505.859 149.425 502.723 148.319 500.296 149.757L498.123 151.045C497.364 151.494 496.723 152.119 496.255 152.867L494.311 155.972C492.377 159.061 487.666 158.224 486.915 154.658C485.948 150.067 479.254 150.519 478.912 155.198L473.185 233.649C473.078 235.122 472.394 236.495 471.282 237.468C468.29 240.09 463.596 238.859 462.275 235.106L457.05 220.267L449.258 197.884C449.131 197.519 449.032 197.144 448.964 196.764L445.2 175.941C444.422 171.637 438.223 171.717 437.557 176.04C436.867 180.514 430.375 180.376 429.876 175.876L428.524 163.689C427.847 157.583 419.189 157.014 417.718 162.979L417.269 164.802C417.178 165.17 417.124 165.545 417.106 165.922L411.927 275.265C411.615 281.835 402.06 282.261 401.166 275.745L393.364 177.161C393.244 175.648 392.812 174.175 392.096 172.837L385.507 160.53C385.302 160.149 385.146 159.743 385.04 159.324C383.587 153.529 375.138 154.233 374.664 160.189L369.496 225.121C369.337 227.117 367.953 228.804 366.027 229.35C363.416 230.09 360.713 228.516 360.067 225.881L353.265 198.107L349.263 159.086C348.557 152.198 338.715 151.686 337.298 158.465L335.639 167.1C334.155 174.821 323.204 175.099 321.331 167.462L313.506 108.802C313.402 108.02 313.123 107.271 312.69 106.611C310.069 102.61 303.903 103.889 303.089 108.602L300.663 122.647C299.765 127.845 292.562 128.495 290.749 123.541C289.95 121.362 287.794 119.985 285.481 120.179L284.25 120.282C282.494 120.429 280.949 121.499 280.193 123.091C278.115 127.466 271.637 126.559 270.842 121.78L265.745 91.1564C265.553 90.0025 264.932 88.9638 264.007 88.2485C261.141 86.0339 256.956 87.8121 256.562 91.4122L253.976 114.996C253.323 120.95 244.705 121.065 243.894 115.13C243.203 110.075 236.324 109.08 234.23 113.734L233.765 114.767C233.597 115.139 233.472 115.528 233.393 115.928L225.529 155.38L217.546 186.024C215.565 191.279 207.848 190.272 207.282 184.684L201.67 129.237C201.61 128.639 201.462 128.052 201.233 127.496C198.907 121.848 190.682 122.591 189.406 128.565L185.612 146.33L181.427 191.418C180.879 197.322 172.349 197.569 171.46 191.708C170.789 187.288 165.112 185.881 162.455 189.475L162.359 189.605C161.9 190.226 161.299 190.738 160.614 191.095C157.29 192.829 153.215 190.717 152.784 186.993L145.792 126.604C145.727 126.045 145.619 125.492 145.47 124.949L141.174 109.343C139.8 104.353 133.227 103.233 130.279 107.487C129.914 108.014 129.467 108.48 128.956 108.868C125.508 111.489 120.502 109.79 119.363 105.611L113.76 85.0424C111.997 79.5349 103.946 80.424 103.427 86.1835L97.7935 148.696L94.4697 188.318C93.8367 195.865 82.9111 196.193 81.8265 188.697L75.311 145.519C74.8913 142.737 71.0864 142.252 69.9827 144.84C68.8595 147.473 64.9736 146.911 64.6419 144.068L57.876 86.0707L50.0068 27.6866C49.9307 27.1225 49.811 26.5652 49.6488 26.0197L45.6611 12.6138C44.1724 7.60887 37.5199 6.6146 34.6329 10.9655C34.1663 11.6686 33.8493 12.4601 33.7016 13.2908L26.1082 55.9838C25.9977 56.6052 25.8327 57.2157 25.6152 57.8081L22.8099 65.4505C20.8461 70.8006 13.5756 71.5251 10.5945 66.6677L10.3347 66.2443C10.0968 65.8567 9.92742 65.4309 9.8341 64.9856C8.85762 60.327 2 61.038 2 65.7979V395.025C2 399.429 5.57058 403 9.97512 403H17.9586H25.9421H33.9256H41.9091H49.8925H57.876H65.8595H73.843H81.8265H89.81H97.7935H105.777H113.76H121.744H129.727H137.711H145.694H153.678H161.661H169.645H177.628H185.612H193.595H201.579H209.562H217.546H225.529H233.513H241.496H249.48H257.463H265.447H273.43H281.414H289.397H297.381H305.364H313.348H321.331H329.315H337.298H345.281H353.265H361.248H369.232H377.215H385.199H393.182H401.166H409.149H417.133H425.116H433.1H441.083H449.067H457.05H465.034H473.017H481.001H488.984H496.968H504.951H512.935H520.918H528.902H536.885H544.869H552.852H560.503H568.486H576.47H584.453H592.437H600.42H608.404H616.387H624.371H632.354H640.338H648.321H656.305H664.288H672.272H680.255H688.239H696.222H704.206H712.189H720.173H728.156H736.14H744.123H752.107H760.09H768.074H776.057H784.041H792.024H800.007H807.991H815.974H823.958H831.941H839.925H847.908H855.892H863.875H871.859H879.842H887.826H895.809H903.793H911.776H919.76H927.743H935.727H943.71H951.694H959.677H967.661H975.644H983.628H991.611H999.595H1007.58H1015.56H1023.55H1031.53H1039.51H1047.5H1055.48H1063.46H1071.45H1079.43H1087.41H1095.4H1103.38H1111.36H1119.35H1127.33H1135.31H1143.3H1151.28H1159.26H1167.25H1175.23H1183.21H1191.2H1199.18H1207.17H1215.15H1223.13H1231.12H1239.1H1247.08H1255.07H1263.05H1271.03H1279.02C1283.43 403 1287 399.426 1287 395.017V296.986Z" fill="url(#paint0_linear_267_5671)"/>
<path d="M1287 294.306V294.306C1283.11 292.204 1278.32 294.593 1277.66 298.962L1271.34 340.64C1271.15 341.946 1270.41 343.11 1269.32 343.85V343.85C1266.42 345.808 1262.48 344.058 1261.98 340.598L1255.34 293.967C1255.16 292.718 1254.59 291.561 1253.7 290.667V290.667C1250.64 287.601 1245.44 288.796 1244.02 292.885L1242.96 295.98C1241.32 300.738 1235.02 301.725 1232 297.699L1231.88 297.538C1231.38 296.867 1231.04 296.087 1230.89 295.261V295.261C1229.74 288.99 1220.59 289.502 1220.14 295.862L1216.73 344.965C1216.37 350.178 1209.14 351.197 1207.35 346.287V346.287C1207.23 345.946 1207.14 345.592 1207.1 345.232L1201.87 303.591C1201.17 298.008 1193.47 297.074 1191.45 302.329V302.329C1191.28 302.771 1191.17 303.236 1191.12 303.708V303.708C1190.23 312.339 1177.59 312.437 1176.87 303.789L1175.31 285.07C1175.26 284.48 1175.09 283.906 1174.83 283.378V283.378C1172.72 279.205 1166.45 280.483 1166.14 285.149L1160.26 374.1C1159.95 378.727 1153.87 380.203 1151.48 376.229V376.229C1151.35 376.013 1151.23 375.786 1151.14 375.551L1144.06 357.919C1143.56 356.654 1142.82 355.495 1141.89 354.5L1137.55 349.864C1136.1 348.311 1135.2 346.325 1134.98 344.21L1132.58 320.727C1131.79 312.943 1120.56 312.644 1119.35 320.374V320.374V320.374C1117.83 325.805 1109.88 324.963 1109.53 319.335L1106.03 262.582C1105.64 256.279 1096.57 255.709 1095.4 261.914V261.914L1090.59 284.043C1089.86 287.427 1085.02 287.416 1084.31 284.027V284.027C1083.53 280.37 1078.19 280.761 1077.95 284.493L1076.62 305.645C1076.15 313.198 1065.07 313.322 1064.43 305.781L1063.46 294.46L1057.27 229.361C1056.79 224.285 1049.88 223.163 1047.81 227.826V227.826C1047.6 228.302 1047.47 228.809 1047.42 229.326L1041.08 291.277C1040.74 294.663 1035.99 295.126 1035 291.871V291.871C1034.06 288.804 1029.66 288.978 1028.97 292.11L1026.25 304.375C1025.42 308.16 1020.21 308.624 1018.71 305.047L1018.19 303.784C1017.12 301.236 1013.59 301.037 1012.25 303.45V303.45C1010.72 306.197 1006.58 305.46 1006.09 302.354L1005.13 296.245C1004.17 290.091 995.294 290.133 994.388 296.296L991.611 315.181L983.628 359.348L978.34 388.26C977.418 393.301 970.715 394.46 968.153 390.022V390.022C967.827 389.458 967.604 388.84 967.495 388.198L959.677 342.483L953.494 224.449C953.194 218.726 945.04 217.983 943.71 223.558V223.558L940.267 245.29C939.522 249.989 932.72 249.877 932.13 245.156V245.156C931.526 240.314 924.488 240.375 923.967 245.227L923.382 250.679C922.847 255.667 915.635 255.797 914.92 250.832V250.832C914.251 246.187 907.666 245.871 906.555 250.43L904.602 258.441C904.102 260.492 902.537 262.116 900.506 262.691L895.809 264.022V264.022C891.117 264.868 886.45 262.414 884.488 258.068L880.493 249.216C880.061 248.26 879.769 247.247 879.624 246.208L871.93 190.955C871.883 190.616 871.809 190.281 871.711 189.953L869.359 182.121C867.95 177.43 861.196 177.773 860.269 182.582L859.213 188.064C858.48 191.871 853.049 191.923 852.244 188.13V188.13C851.412 184.216 845.751 184.446 845.24 188.414L844.743 192.263C844.1 197.249 836.839 197.127 836.363 192.122L831.941 145.559L823.986 325.354C823.967 325.769 823.897 326.18 823.776 326.577V326.577C822.176 331.855 814.452 330.99 814.059 325.488L807.991 240.525L800.455 193.007C800.161 191.159 799.401 189.415 798.246 187.943L793.986 182.511C792.723 180.9 790.908 179.814 788.891 179.463L788.644 179.42C785.807 178.927 783.467 176.921 782.546 174.192L782.072 172.789C779.945 166.485 771.174 166.101 768.502 172.194V172.194C768.218 172.841 768.03 173.526 767.943 174.227L765.116 197.19C764.438 202.692 756.434 202.614 755.864 197.099L754.894 187.71C754.477 183.676 748.651 183.538 748.044 187.548V187.548C747.439 191.54 741.648 191.429 741.196 187.417L736.979 149.931C736.597 146.54 732.751 144.766 729.924 146.678V146.678C728.804 147.435 728.08 148.651 727.948 149.997L720.91 221.933C720.615 224.951 716.948 226.273 714.796 224.138V224.138C713.365 222.718 711.047 222.751 709.657 224.21L709.415 224.465C707.218 226.771 703.334 225.654 702.698 222.533L697.131 195.212C696.678 192.993 694.212 191.841 692.221 192.919V192.919C690.235 193.993 687.775 192.851 687.314 190.641L682.606 168.083C681.902 164.712 677.253 164.302 675.971 167.498V167.498C674.745 170.552 670.358 170.356 669.409 167.205L668.861 165.382C667.63 161.293 661.77 161.509 660.843 165.676L657.582 180.334C656.94 183.219 653.724 184.696 651.118 183.303L650.834 183.151C649.329 182.346 647.48 182.582 646.225 183.738V183.738C643.796 185.975 639.856 184.483 639.517 181.198L633.858 126.314C633.377 121.645 627.228 120.279 624.814 124.304V124.304C624.521 124.794 624.316 125.331 624.208 125.891L617.984 158.198C617.418 161.135 613.537 161.842 611.973 159.293V159.293C610.535 156.95 607.026 157.312 606.096 159.898L605.533 161.464C604.125 165.382 598.441 164.917 597.688 160.822L596.244 152.962C595.426 148.509 589.071 148.436 588.15 152.868V152.868C587.256 157.166 581.158 157.278 580.107 153.016L577.401 142.034C576.834 139.737 574.971 137.988 572.643 137.568V137.568C570.15 137.118 567.644 138.284 566.381 140.48L560.725 150.315C560.577 150.572 560.411 150.818 560.229 151.051V151.051C557.122 155.018 550.835 153.845 549.368 149.025L547.304 142.246C546.326 139.033 542.061 138.388 540.177 141.168V141.168C538.596 143.499 535.164 143.506 533.574 141.181L529.195 134.779C529 134.494 528.831 134.191 528.692 133.875V133.875C526.425 128.735 518.851 129.738 518 135.291L515.567 151.166C514.86 155.778 508.483 156.437 506.847 152.067V152.067C505.859 149.425 502.723 148.319 500.296 149.757L498.123 151.045C497.364 151.494 496.723 152.119 496.255 152.867L494.311 155.972C492.377 159.061 487.666 158.224 486.915 154.658V154.658C485.948 150.067 479.254 150.519 478.912 155.198L473.185 233.649C473.078 235.122 472.394 236.495 471.282 237.468V237.468C468.29 240.09 463.596 238.859 462.275 235.106L457.05 220.267L449.258 197.884C449.131 197.519 449.032 197.144 448.964 196.764L445.2 175.941C444.422 171.637 438.223 171.717 437.557 176.04V176.04C436.867 180.514 430.375 180.376 429.876 175.876L428.524 163.689C427.847 157.583 419.189 157.014 417.718 162.979L417.269 164.802C417.178 165.17 417.124 165.545 417.106 165.922L411.927 275.265C411.615 281.835 402.06 282.261 401.166 275.745V275.745L393.364 177.161C393.244 175.648 392.812 174.175 392.096 172.837L385.507 160.53C385.302 160.149 385.146 159.743 385.04 159.324V159.324C383.587 153.529 375.138 154.233 374.664 160.189L369.496 225.121C369.337 227.117 367.953 228.804 366.027 229.35V229.35C363.416 230.09 360.713 228.516 360.067 225.881L353.265 198.107L349.263 159.086C348.557 152.198 338.715 151.686 337.298 158.465V158.465L335.639 167.1C334.155 174.821 323.204 175.099 321.331 167.462V167.462L313.506 108.802C313.402 108.02 313.123 107.271 312.69 106.611V106.611C310.069 102.61 303.903 103.889 303.089 108.602L300.663 122.647C299.765 127.845 292.562 128.495 290.748 123.541V123.541C289.95 121.362 287.794 119.985 285.481 120.179L284.25 120.282C282.494 120.429 280.949 121.499 280.193 123.091V123.091C278.115 127.466 271.637 126.559 270.842 121.78L265.745 91.1564C265.553 90.0025 264.932 88.9638 264.007 88.2485V88.2485C261.141 86.0339 256.956 87.8121 256.562 91.4122L253.976 114.996C253.323 120.95 244.705 121.065 243.894 115.13V115.13C243.203 110.075 236.324 109.08 234.23 113.734L233.765 114.767C233.597 115.139 233.472 115.528 233.393 115.928L225.529 155.38L217.546 186.024V186.024C215.565 191.279 207.848 190.272 207.282 184.684L201.67 129.237C201.61 128.639 201.462 128.052 201.233 127.496V127.496C198.907 121.848 190.682 122.591 189.406 128.565L185.612 146.33L181.427 191.418C180.879 197.322 172.349 197.569 171.46 191.708V191.708C170.789 187.288 165.112 185.881 162.455 189.475L162.359 189.605C161.9 190.226 161.299 190.738 160.614 191.095V191.095C157.29 192.829 153.215 190.717 152.784 186.993L145.792 126.604C145.727 126.045 145.619 125.492 145.47 124.949L141.174 109.343C139.8 104.353 133.227 103.233 130.279 107.487V107.487C129.914 108.014 129.467 108.48 128.956 108.868V108.868C125.508 111.489 120.502 109.79 119.363 105.611L113.76 85.0424V85.0424C111.997 79.5349 103.946 80.4239 103.427 86.1835L97.7935 148.696L94.4697 188.318C93.8367 195.865 82.9111 196.193 81.8265 188.697V188.697L75.311 145.519C74.8913 142.737 71.0864 142.252 69.9827 144.84V144.84C68.8595 147.473 64.9736 146.911 64.6419 144.068L57.876 86.0707L50.0068 27.6866C49.9307 27.1225 49.811 26.5652 49.6488 26.0197L45.6611 12.6138C44.1724 7.60887 37.5199 6.6146 34.6329 10.9655V10.9655C34.1663 11.6686 33.8493 12.4601 33.7016 13.2908L26.1082 55.9838C25.9977 56.6052 25.8327 57.2157 25.6152 57.8081L22.8099 65.4505C20.8461 70.8006 13.5756 71.5251 10.5945 66.6677V66.6677C10.1847 65.9999 9.89294 65.2664 9.73219 64.4994L2 27.6105" stroke="url(#paint1_linear_267_5671)" stroke-width="3" stroke-linecap="round" stroke-linejoin="round"/>
<defs>
<linearGradient id="paint0_linear_267_5671" x1="644.5" y1="0" x2="644.5" y2="0" gradientUnits="userSpaceOnUse">
<stop stop-color="#FF3E3D" stop-opacity="0.4"/>
<stop offset="1" stop-color="#842B3D" stop-opacity="0"/>
</linearGradient>
<linearGradient id="paint1_linear_267_5671" x1="2" y1="201.5" x2="1287" y2="201.5" gradientUnits="userSpaceOnUse">
<stop stop-color="#FF3E3D"/>
<stop offset="1" stop-color="#466DFD"/>
</linearGradient>
</defs>
</svg>
