<svg width="24" height="24" viewBox="0 0 24 24" fill="none" xmlns="http://www.w3.org/2000/svg">
<path d="M12 0C18.6276 0 24 5.3724 24 12C24 18.6276 18.6276 24 12 24C5.3724 24 0 18.6276 0 12C0 5.3724 5.3724 0 12 0ZM10.884 6.6972C10.6619 6.6972 10.4488 6.78545 10.2917 6.94253C10.1346 7.09961 10.0464 7.31265 10.0464 7.5348V14.232C10.0464 14.6952 10.4208 15.0696 10.884 15.0696H17.5812C17.6938 15.0739 17.8061 15.0554 17.9113 15.0152C18.0166 14.9751 18.1127 14.9141 18.1939 14.836C18.275 14.7578 18.3396 14.6641 18.3837 14.5604C18.4278 14.4568 18.4505 14.3453 18.4505 14.2326C18.4505 14.1199 18.4278 14.0084 18.3837 13.9048C18.3396 13.8011 18.275 13.7074 18.1939 13.6292C18.1127 13.5511 18.0166 13.4901 17.9113 13.45C17.8061 13.4098 17.6938 13.3913 17.5812 13.3956H11.7204V7.5348C11.7204 7.31286 11.6323 7.1 11.4755 6.94295C11.3187 6.78591 11.1059 6.69752 10.884 6.6972Z" fill="url(#paint0_radial_182_260)"/>
<defs>
<radialGradient id="paint0_radial_182_260" cx="0" cy="0" r="1" gradientUnits="userSpaceOnUse" gradientTransform="translate(12 12) rotate(90) scale(12)">
<stop stop-color="white" stop-opacity="0.46"/>
<stop offset="1" stop-color="#7C93FF" stop-opacity="0.26"/>
</radialGradient>
</defs>
</svg>
