<svg width="30" height="24" viewBox="0 0 30 24" fill="none" xmlns="http://www.w3.org/2000/svg">
<path d="M25.3964 2.61521C23.4839 1.75271 21.4339 1.11521 19.2901 0.752711C19.271 0.749046 19.2513 0.751408 19.2336 0.75947C19.2159 0.767533 19.2011 0.780897 19.1914 0.797711C18.9289 1.25896 18.6364 1.86021 18.4314 2.33521C16.1577 1.99551 13.8462 1.99551 11.5726 2.33521C11.3443 1.80879 11.0868 1.29549 10.8014 0.797711C10.7917 0.78069 10.7771 0.767023 10.7594 0.758536C10.7418 0.750049 10.722 0.747145 10.7026 0.750211C8.56011 1.11271 6.51011 1.75021 4.59636 2.61396C4.5799 2.62087 4.56594 2.63264 4.55636 2.64771C0.666363 8.36646 -0.399888 13.944 0.123863 19.4515C0.12532 19.465 0.129507 19.478 0.136169 19.4898C0.14283 19.5016 0.151828 19.512 0.162613 19.5202C2.4331 21.1732 4.96553 22.4325 7.65386 23.2452C7.6726 23.251 7.69265 23.251 7.71138 23.2452C7.73011 23.2394 7.74666 23.2281 7.75886 23.2127C8.33736 22.439 8.84999 21.6183 9.29136 20.759C9.29749 20.7472 9.30102 20.7343 9.30172 20.7211C9.30241 20.7078 9.30026 20.6946 9.2954 20.6823C9.29054 20.6699 9.28309 20.6588 9.27355 20.6496C9.26401 20.6404 9.25261 20.6334 9.24011 20.629C8.43262 20.3249 7.65022 19.9579 6.90011 19.5315C6.88663 19.5238 6.87528 19.5128 6.86706 19.4997C6.85884 19.4865 6.85402 19.4715 6.85303 19.456C6.85204 19.4405 6.85491 19.4251 6.86138 19.4109C6.86785 19.3968 6.87773 19.3846 6.89011 19.3752C7.04761 19.259 7.20511 19.1377 7.35511 19.0165C7.36862 19.0056 7.38488 18.9986 7.40209 18.9964C7.41931 18.9942 7.4368 18.9968 7.45261 19.004C12.3614 21.209 17.6776 21.209 22.5289 19.004C22.5447 18.9964 22.5624 18.9934 22.5799 18.9954C22.5973 18.9974 22.6139 19.0043 22.6276 19.0152C22.7776 19.1377 22.9339 19.259 23.0926 19.3752C23.1051 19.3844 23.1152 19.3965 23.1218 19.4105C23.1285 19.4244 23.1316 19.4399 23.1309 19.4554C23.1301 19.4708 23.1256 19.4859 23.1176 19.4992C23.1096 19.5125 23.0984 19.5235 23.0851 19.5315C22.3376 19.9615 21.5601 20.3252 20.7439 20.6277C20.7313 20.6323 20.7199 20.6394 20.7104 20.6488C20.7008 20.6581 20.6934 20.6693 20.6885 20.6817C20.6837 20.6942 20.6815 20.7075 20.6822 20.7208C20.6829 20.7341 20.6865 20.7471 20.6926 20.759C21.1426 21.6177 21.6576 22.4352 22.2239 23.2115C22.2356 23.2274 22.252 23.2393 22.2708 23.2456C22.2896 23.2518 22.3099 23.2521 22.3289 23.2465C25.0218 22.436 27.5584 21.1762 29.8314 19.5202C29.8425 19.5125 29.8518 19.5024 29.8587 19.4908C29.8656 19.4791 29.8699 19.4662 29.8714 19.4527C30.4964 13.0852 28.8239 7.55271 25.4351 2.65021C25.4268 2.63428 25.4131 2.62186 25.3964 2.61521ZM10.0251 16.0977C8.54761 16.0977 7.32886 14.7615 7.32886 13.1227C7.32886 11.4827 8.52386 10.1477 10.0251 10.1477C11.5376 10.1477 12.7451 11.494 12.7214 13.1227C12.7214 14.7627 11.5264 16.0977 10.0251 16.0977ZM19.9939 16.0977C18.5151 16.0977 17.2976 14.7615 17.2976 13.1227C17.2976 11.4827 18.4914 10.1477 19.9939 10.1477C21.5064 10.1477 22.7139 11.494 22.6901 13.1227C22.6901 14.7627 21.5076 16.0977 19.9939 16.0977Z" fill="white"/>
</svg>
