<svg width="22" height="16" viewBox="0 0 22 16" fill="none" xmlns="http://www.w3.org/2000/svg">
<path d="M-2.37524 14.8567L2.31942 16.8427L21.4394 2.15868L23.9161 -0.791989L18.8961 -1.45532L11.0974 4.87201L4.82009 9.13601L-2.37524 14.8567Z" fill="white"/>
<path d="M-1.7334 16.248L0.659268 17.4L23.0266 -1.06598H19.6686L-1.73273 16.2474L-1.7334 16.248Z" fill="#F50100"/>
<path d="M23.7088 14.8567L19.0141 16.8427L-0.105853 2.15868L-2.58252 -0.791989L2.43748 -1.45532L10.2361 4.87201L16.5135 9.13601L23.7088 14.8567Z" fill="white"/>
<path d="M23.5487 15.8554L21.1567 17.0074L11.6327 9.10069L8.80871 8.21802L-2.82129 -0.781982H0.537377L12.16 8.00468L15.2474 9.06335L23.5487 15.8554Z" fill="#F50100"/>
<mask id="mask0_258_1796" style="mask-type:alpha" maskUnits="userSpaceOnUse" x="-2" y="-2" width="25" height="20">
<path fill-rule="evenodd" clip-rule="evenodd" d="M13.1853 -1.33331H8.14797V5.33335H-1.3147V10.6667H8.14797V17.3334H13.1853V10.6667H22.6853V5.33335H13.1853V-1.33331Z" fill="white"/>
</mask>
<g mask="url(#mask0_258_1796)">
<path fill-rule="evenodd" clip-rule="evenodd" d="M13.1853 -1.33331H8.14797V5.33335H-1.3147V10.6667H8.14797V17.3334H13.1853V10.6667H22.6853V5.33335H13.1853V-1.33331Z" fill="#F50100"/>
<path d="M8.14805 -1.33332V-2.66666H6.81472V-1.33332H8.14805ZM13.1854 -1.33332H14.5187V-2.66666H13.1854V-1.33332ZM8.14805 5.33334V6.66668H9.48138V5.33334H8.14805ZM-1.31462 5.33334V4.00001H-2.64795V5.33334H-1.31462ZM-1.31462 10.6667H-2.64795V12H-1.31462V10.6667ZM8.14805 10.6667H9.48138V9.33334H8.14805V10.6667ZM8.14805 17.3333H6.81472V18.6667H8.14805V17.3333ZM13.1854 17.3333V18.6667H14.5187V17.3333H13.1854ZM13.1854 10.6667V9.33334H11.8521V10.6667H13.1854ZM22.6854 10.6667V12H24.0187V10.6667H22.6854ZM22.6854 5.33334H24.0187V4.00001H22.6854V5.33334ZM13.1854 5.33334H11.8521V6.66668H13.1854V5.33334ZM8.14805 1.00136e-05H13.1854V-2.66666H8.14805V1.00136e-05ZM9.48138 5.33334V-1.33332H6.81472V5.33334H9.48138ZM-1.31462 6.66668H8.14805V4.00001H-1.31462V6.66668ZM0.0187175 10.6667V5.33334H-2.64795V10.6667H0.0187175ZM8.14805 9.33334H-1.31462V12H8.14805V9.33334ZM9.48138 17.3333V10.6667H6.81472V17.3333H9.48138ZM13.1854 16H8.14805V18.6667H13.1854V16ZM11.8521 10.6667V17.3333H14.5187V10.6667H11.8521ZM22.6854 9.33334H13.1854V12H22.6854V9.33334ZM21.3521 5.33334V10.6667H24.0187V5.33334H21.3521ZM13.1854 6.66668H22.6854V4.00001H13.1854V6.66668ZM11.8521 -1.33332V5.33334H14.5187V-1.33332H11.8521Z" fill="white"/>
</g>
</svg>
