<svg width="255" height="229" viewBox="0 0 255 229" fill="none" xmlns="http://www.w3.org/2000/svg">
<g filter="url(#filter0_d_190_959)">
<path d="M114.417 101.533H140.183C147.299 101.533 153.067 95.7652 153.067 88.65C153.067 81.5348 147.299 75.7667 140.183 75.7667H114.417C107.302 75.7667 101.533 81.5348 101.533 88.65C101.533 95.7652 107.302 101.533 114.417 101.533Z" fill="#F3C522"/>
<path d="M97.2388 127.3H157.361C164.476 127.3 170.244 121.532 170.244 114.417C170.244 107.301 164.476 101.533 157.361 101.533H97.2388C90.1236 101.533 84.3555 107.301 84.3555 114.417C84.3555 121.532 90.1236 127.3 97.2388 127.3Z" fill="#F3C522"/>
<path d="M80.0611 153.067H174.539C181.654 153.067 187.422 147.299 187.422 140.183C187.422 133.068 181.654 127.3 174.539 127.3H80.0611C72.9458 127.3 67.1777 133.068 67.1777 140.183C67.1777 147.299 72.9458 153.067 80.0611 153.067Z" fill="#F3C522"/>
<path d="M62.8833 178.833H191.717C198.832 178.833 204.6 173.065 204.6 165.95C204.6 158.835 198.832 153.067 191.717 153.067H62.8833C55.7681 153.067 50 158.835 50 165.95C50 173.065 55.7681 178.833 62.8833 178.833Z" fill="#F3C522"/>
<g opacity="0.6">
<path opacity="0.6" d="M140.183 75.7667H123.006C130.121 75.7667 135.889 81.5348 135.889 88.65C135.889 95.7652 130.121 101.533 123.006 101.533H140.183C147.299 101.533 153.067 95.7652 153.067 88.65C153.067 81.5348 147.299 75.7667 140.183 75.7667Z" fill="#BDC3C7"/>
</g>
<g opacity="0.6">
<path opacity="0.6" d="M157.361 101.533H137.321C144.436 101.533 150.204 107.301 150.204 114.417C150.204 121.532 144.436 127.3 137.321 127.3H157.361C164.477 127.3 170.245 121.532 170.245 114.417C170.245 107.301 164.477 101.533 157.361 101.533Z" fill="#BDC3C7"/>
</g>
<g opacity="0.6">
<path opacity="0.6" d="M174.539 127.3H151.635C158.75 127.3 164.518 133.068 164.518 140.183C164.518 147.299 158.75 153.067 151.635 153.067H174.539C181.654 153.067 187.422 147.299 187.422 140.183C187.422 133.068 181.654 127.3 174.539 127.3Z" fill="#BDC3C7"/>
</g>
<g opacity="0.6">
<path opacity="0.6" d="M191.717 153.067H165.95C173.065 153.067 178.833 158.835 178.833 165.95C178.833 173.065 173.065 178.833 165.95 178.833H191.717C198.832 178.833 204.6 173.065 204.6 165.95C204.6 158.835 198.832 153.067 191.717 153.067Z" fill="#BDC3C7"/>
</g>
<path d="M135.889 75.7667H118.711V58.5889C118.711 53.8452 122.556 50 127.3 50C132.043 50 135.889 53.8452 135.889 58.5889V75.7667Z" fill="#F3C522"/>
<g opacity="0.6">
<path opacity="0.6" d="M127.3 50C125.734 50 124.27 50.4258 123.006 51.1582C125.57 52.6438 127.3 55.4115 127.3 58.5889V75.7667H135.889V58.5889C135.889 53.8452 132.044 50 127.3 50Z" fill="#BDC3C7"/>
</g>
</g>
<defs>
<filter id="filter0_d_190_959" x="0" y="0" width="254.6" height="228.833" filterUnits="userSpaceOnUse" color-interpolation-filters="sRGB">
<feFlood flood-opacity="0" result="BackgroundImageFix"/>
<feColorMatrix in="SourceAlpha" type="matrix" values="0 0 0 0 0 0 0 0 0 0 0 0 0 0 0 0 0 0 127 0" result="hardAlpha"/>
<feOffset/>
<feGaussianBlur stdDeviation="25"/>
<feComposite in2="hardAlpha" operator="out"/>
<feColorMatrix type="matrix" values="0 0 0 0 1 0 0 0 0 1 0 0 0 0 1 0 0 0 0.21 0"/>
<feBlend mode="normal" in2="BackgroundImageFix" result="effect1_dropShadow_190_959"/>
<feBlend mode="normal" in="SourceGraphic" in2="effect1_dropShadow_190_959" result="shape"/>
</filter>
</defs>
</svg>
