<svg width="10" height="10" viewBox="0 0 10 10" fill="none" xmlns="http://www.w3.org/2000/svg">
<path d="M2.4975 5C2.4975 6.3805 3.6205 7.5035 5.001 7.5035C6.3815 7.5035 7.5045 6.3805 7.5045 5C7.5045 3.6195 6.3815 2.4965 5.001 2.4965C3.6205 2.4965 2.4975 3.6195 2.4975 5ZM4.5 8.5H5.5V10H4.5V8.5ZM4.5 0H5.5V1.5H4.5V0ZM0 4.5H1.5V5.5H0V4.5ZM8.5 4.5H10V5.5H8.5V4.5ZM1.8185 8.889L1.1115 8.182L2.172 7.1215L2.879 7.8285L1.8185 8.889ZM7.121 2.172L8.182 1.111L8.889 1.818L7.828 2.879L7.121 2.172ZM2.172 2.8795L1.1115 1.8185L1.819 1.1115L2.879 2.1725L2.172 2.8795ZM8.889 8.182L8.182 8.889L7.121 7.828L7.828 7.121L8.889 8.182Z" fill="white"/>
</svg>
