<svg width="318" height="73" viewBox="0 0 318 73" fill="none" xmlns="http://www.w3.org/2000/svg">
<g filter="url(#filter0_d_195_1966)">
<path d="M10.5 49C34 49 34 30.3333 57.5 30.3333C81 30.3333 81 11.6667 104.5 11.6667C128 11.6667 121.5 37 145 37C168.5 37 165 30.3333 188.5 30.3333C212 30.3333 222 21 245.5 21C269 21 264.5 41 288 41" stroke="url(#paint0_linear_195_1966)" stroke-width="2" stroke-linejoin="round"/>
</g>
<g filter="url(#filter1_d_195_1966)">
<circle cx="288" cy="39" r="10" fill="white"/>
<circle cx="288" cy="39" r="7.5" stroke="url(#paint1_linear_195_1966)" stroke-width="5"/>
</g>
<defs>
<filter id="filter0_d_195_1966" x="0.5" y="0.666672" width="297.5" height="59.3333" filterUnits="userSpaceOnUse" color-interpolation-filters="sRGB">
<feFlood flood-opacity="0" result="BackgroundImageFix"/>
<feColorMatrix in="SourceAlpha" type="matrix" values="0 0 0 0 0 0 0 0 0 0 0 0 0 0 0 0 0 0 127 0" result="hardAlpha"/>
<feOffset/>
<feGaussianBlur stdDeviation="5"/>
<feComposite in2="hardAlpha" operator="out"/>
<feColorMatrix type="matrix" values="0 0 0 0 1 0 0 0 0 1 0 0 0 0 1 0 0 0 0.26 0"/>
<feBlend mode="normal" in2="BackgroundImageFix" result="effect1_dropShadow_195_1966"/>
<feBlend mode="normal" in="SourceGraphic" in2="effect1_dropShadow_195_1966" result="shape"/>
</filter>
<filter id="filter1_d_195_1966" x="258" y="13" width="60" height="60" filterUnits="userSpaceOnUse" color-interpolation-filters="sRGB">
<feFlood flood-opacity="0" result="BackgroundImageFix"/>
<feColorMatrix in="SourceAlpha" type="matrix" values="0 0 0 0 0 0 0 0 0 0 0 0 0 0 0 0 0 0 127 0" result="hardAlpha"/>
<feOffset dy="4"/>
<feGaussianBlur stdDeviation="10"/>
<feComposite in2="hardAlpha" operator="out"/>
<feColorMatrix type="matrix" values="0 0 0 0 1 0 0 0 0 0.243137 0 0 0 0 0.239216 0 0 0 0.45 0"/>
<feBlend mode="normal" in2="BackgroundImageFix" result="effect1_dropShadow_195_1966"/>
<feBlend mode="normal" in="SourceGraphic" in2="effect1_dropShadow_195_1966" result="shape"/>
</filter>
<linearGradient id="paint0_linear_195_1966" x1="10.5" y1="30.3333" x2="288" y2="30.3333" gradientUnits="userSpaceOnUse">
<stop stop-color="#FF3E3D"/>
<stop offset="1" stop-color="#466DFD"/>
</linearGradient>
<linearGradient id="paint1_linear_195_1966" x1="278" y1="39" x2="298" y2="39" gradientUnits="userSpaceOnUse">
<stop stop-color="#466DFD"/>
<stop offset="1" stop-color="#FF3E3D"/>
</linearGradient>
</defs>
</svg>
