<svg width="318" height="80" viewBox="0 0 318 80" fill="none" xmlns="http://www.w3.org/2000/svg">
<g filter="url(#filter0_d_195_1973)">
<path d="M10.5 69C34 69 34 50.3333 57.5 50.3333C81 50.3333 81 31.6667 104.5 31.6667C128 31.6667 121.5 57 145 57C168.5 57 164 21 187.5 21C211 21 222 41 245.5 41C269 41 263.5 25 287 25" stroke="url(#paint0_linear_195_1973)" stroke-width="2" stroke-linejoin="round"/>
</g>
<g filter="url(#filter1_d_195_1973)">
<circle cx="288" cy="26" r="10" fill="white"/>
<circle cx="288" cy="26" r="7.5" stroke="url(#paint1_linear_195_1973)" stroke-width="5"/>
</g>
<defs>
<filter id="filter0_d_195_1973" x="0.5" y="10" width="296.5" height="70" filterUnits="userSpaceOnUse" color-interpolation-filters="sRGB">
<feFlood flood-opacity="0" result="BackgroundImageFix"/>
<feColorMatrix in="SourceAlpha" type="matrix" values="0 0 0 0 0 0 0 0 0 0 0 0 0 0 0 0 0 0 127 0" result="hardAlpha"/>
<feOffset/>
<feGaussianBlur stdDeviation="5"/>
<feComposite in2="hardAlpha" operator="out"/>
<feColorMatrix type="matrix" values="0 0 0 0 1 0 0 0 0 1 0 0 0 0 1 0 0 0 0.26 0"/>
<feBlend mode="normal" in2="BackgroundImageFix" result="effect1_dropShadow_195_1973"/>
<feBlend mode="normal" in="SourceGraphic" in2="effect1_dropShadow_195_1973" result="shape"/>
</filter>
<filter id="filter1_d_195_1973" x="258" y="0" width="60" height="60" filterUnits="userSpaceOnUse" color-interpolation-filters="sRGB">
<feFlood flood-opacity="0" result="BackgroundImageFix"/>
<feColorMatrix in="SourceAlpha" type="matrix" values="0 0 0 0 0 0 0 0 0 0 0 0 0 0 0 0 0 0 127 0" result="hardAlpha"/>
<feOffset dy="4"/>
<feGaussianBlur stdDeviation="10"/>
<feComposite in2="hardAlpha" operator="out"/>
<feColorMatrix type="matrix" values="0 0 0 0 1 0 0 0 0 0.243137 0 0 0 0 0.239216 0 0 0 0.45 0"/>
<feBlend mode="normal" in2="BackgroundImageFix" result="effect1_dropShadow_195_1973"/>
<feBlend mode="normal" in="SourceGraphic" in2="effect1_dropShadow_195_1973" result="shape"/>
</filter>
<linearGradient id="paint0_linear_195_1973" x1="10.5" y1="45" x2="287" y2="45" gradientUnits="userSpaceOnUse">
<stop stop-color="#FF3E3D"/>
<stop offset="1" stop-color="#466DFD"/>
</linearGradient>
<linearGradient id="paint1_linear_195_1973" x1="278" y1="26" x2="298" y2="26" gradientUnits="userSpaceOnUse">
<stop stop-color="#466DFD"/>
<stop offset="1" stop-color="#FF3E3D"/>
</linearGradient>
</defs>
</svg>
