<svg width="20" height="20" viewBox="0 0 20 20" fill="none" xmlns="http://www.w3.org/2000/svg">
<path d="M1.66699 9.16675H5.83366V10.8334H1.66699V9.16675ZM14.167 9.16675H18.3337V10.8334H14.167V9.16675ZM9.16699 14.1667H10.8337V18.3334H9.16699V14.1667ZM9.16699 1.66675H10.8337V5.83341H9.16699V1.66675Z" fill="#81A9D8"/>
<path d="M3.51855 4.69664L4.69689 3.51831L7.64355 6.46498L6.46522 7.64331L3.51855 4.69664ZM16.4819 15.3033L15.3036 16.4816L12.3569 13.535L13.5352 12.3566L16.4819 15.3033ZM6.46522 12.3566L7.64355 13.535L4.69689 16.4816L3.51855 15.3033L6.46522 12.3566ZM12.3569 6.46414L15.3036 3.51831L16.4819 4.69748L13.5352 7.64331L12.3569 6.46414Z" fill="#81A9D8"/>
</svg>
