<svg width="29" height="29" viewBox="0 0 29 29" fill="none" xmlns="http://www.w3.org/2000/svg">
<circle opacity="0.5" cx="14.5" cy="14.5" r="14.5" fill="url(#paint0_radial_109_775)"/>
<path d="M18.6129 15.74C18.9595 15.1415 19.5198 15.1415 19.8649 15.74L22.0222 19.5275C22.3688 20.1257 22.0853 20.6139 21.3913 20.6139H17.0459C16.3609 20.6139 16.0774 20.1257 16.4149 19.5275L18.6129 15.74ZM14.4398 8.44864C14.786 7.85045 15.3373 7.85045 15.6839 8.44864L16.1642 9.31615L17.2978 11.3083C17.4339 11.5893 17.5046 11.8975 17.5046 12.2097C17.5046 12.5219 17.4339 12.8301 17.2978 13.1111L13.4946 19.7006C13.3248 19.9646 13.0952 20.1848 12.8244 20.3435C12.5535 20.5022 12.2491 20.5948 11.9358 20.6139H8.77811C8.08529 20.6139 7.80177 20.1336 8.1472 19.5275L14.4398 8.44864Z" fill="#E84142"/>
<defs>
<radialGradient id="paint0_radial_109_775" cx="0" cy="0" r="1" gradientUnits="userSpaceOnUse" gradientTransform="translate(14.5 14.5) rotate(90) scale(14.5)">
<stop stop-color="white" stop-opacity="0.46"/>
<stop offset="1" stop-color="#7C93FF" stop-opacity="0.26"/>
</radialGradient>
</defs>
</svg>
