<svg width="24" height="24" viewBox="0 0 24 24" fill="none" xmlns="http://www.w3.org/2000/svg">
<path d="M21.3935 0.47998H18.4465C17.5372 0.47998 16.8 1.21712 16.8 2.12648V5.07344C16.8 5.9828 17.5372 6.71998 18.4465 6.71998H21.3935C22.3029 6.71998 23.04 5.9828 23.04 5.07344V2.12648C23.04 1.21712 22.3029 0.47998 21.3935 0.47998Z" fill="url(#paint0_linear_1495_1340)"/>
<path d="M9.85253 6.89561H12.4404C13.5112 6.95648 14.5298 7.37835 15.3301 8.09249L15.4272 8.20035C16.145 8.99825 16.5674 10.0183 16.624 11.0901V13.6671C16.624 14.1161 16.8024 14.5467 17.1198 14.8641C17.4373 15.1816 17.8679 15.36 18.3169 15.36H21.3468C21.7957 15.36 22.2264 15.1816 22.5438 14.8641C22.8613 14.5467 23.0397 14.1161 23.0397 13.6671V10.6372C23.0397 10.1882 22.8613 9.75766 22.5438 9.44019C22.2264 9.12271 21.7957 8.94435 21.3468 8.94435H18.7697C17.6979 8.88776 16.6779 8.46531 15.88 7.74747L15.7722 7.65041C15.0566 6.85107 14.6345 5.83193 14.5753 4.76067V2.17284C14.5753 1.7239 14.397 1.29329 14.0795 0.975821C13.762 0.658349 13.3314 0.47998 12.8824 0.47998H9.85253C9.40354 0.47998 8.97298 0.658349 8.65551 0.975821C8.33803 1.29329 8.15967 1.7239 8.15967 2.17284V5.2028C8.15967 5.65174 8.33803 6.0823 8.65551 6.39977C8.97298 6.71724 9.40354 6.89561 9.85253 6.89561Z" fill="url(#paint1_linear_1495_1340)"/>
<path d="M21.8324 17.5041H19.2689C18.2018 17.4348 17.1907 16.9921 16.4063 16.2507L16.1179 15.9564C15.4068 15.1499 14.9883 14.1188 14.9323 13.0354V10.4196C14.9295 9.96667 14.7519 9.53309 14.4381 9.21278C14.1241 8.89248 13.6992 8.71128 13.2553 8.70845H10.6919C9.63355 8.66299 8.62282 8.24736 7.82933 7.53134L7.54094 7.23706C6.82982 6.43051 6.41136 5.39947 6.3553 4.31606V1.7112C6.3553 1.25736 6.17861 0.822097 5.86416 0.501169C5.54966 0.180289 5.12314 0 4.67837 0H1.67693C1.23221 0 0.805632 0.180289 0.491184 0.501169C0.176688 0.822097 0 1.25736 0 1.7112V4.77384C0 5.22768 0.176688 5.66294 0.491184 5.98382C0.805632 6.30475 1.23221 6.48504 1.67693 6.48504H4.22976C5.30769 6.53534 6.33489 6.96691 7.13505 7.70573L7.42344 8.00002C8.1323 8.808 8.55043 9.83817 8.60904 10.921V13.5368C8.61182 13.9897 8.78942 14.4233 9.1033 14.7436C9.41717 15.0639 9.84211 15.2451 10.286 15.248H12.8495C13.8995 15.315 14.8966 15.7412 15.68 16.4578L15.9684 16.752C16.6773 17.56 17.0954 18.5903 17.154 19.673V22.2888C17.1568 22.7418 17.3344 23.1754 17.6483 23.4957C17.9621 23.816 18.3871 23.9971 18.8309 24H21.843C22.2869 23.9971 22.7119 23.816 23.0257 23.4957C23.3396 23.1754 23.5172 22.7418 23.52 22.2888V19.2153C23.5172 18.7605 23.3381 18.3252 23.022 18.0046C22.7058 17.684 22.2781 17.5041 21.8324 17.5041Z" fill="url(#paint2_linear_1495_1340)"/>
<path d="M4.94683 17.28H1.77317C0.793872 17.28 0 18.0172 0 18.9265V21.8735C0 22.7829 0.793872 23.52 1.77317 23.52H4.94683C5.92613 23.52 6.72 22.7829 6.72 21.8735V18.9265C6.72 18.0172 5.92613 17.28 4.94683 17.28Z" fill="url(#paint3_linear_1495_1340)"/>
<path d="M13.1871 17.1043H10.6101C9.53827 17.0477 8.51827 16.6253 7.72032 15.9075L7.61251 15.8104C6.89237 15.0054 6.46997 13.9779 6.41563 12.8992V10.3113C6.4103 9.87529 6.23693 9.45813 5.9316 9.14675C5.62627 8.83542 5.21256 8.65389 4.77667 8.64001H1.69286C1.24387 8.64001 0.813311 8.81838 0.495839 9.13586C0.178367 9.45333 0 9.88389 0 10.3329V13.3628C0 13.8118 0.178367 14.2423 0.495839 14.5599C0.813311 14.8773 1.24387 15.0556 1.69286 15.0556H4.28069C5.35152 15.1165 6.37017 15.5384 7.17043 16.2525L7.26749 16.3603C7.98533 17.1583 8.40777 18.1783 8.46432 19.2501V21.8271C8.46432 22.0504 8.50848 22.2713 8.59421 22.4774C8.67998 22.6835 8.80565 22.8706 8.964 23.028C9.1223 23.1853 9.31022 23.3098 9.51686 23.3942C9.7235 23.4786 9.94478 23.5214 10.168 23.52H13.1871C13.6361 23.52 14.0667 23.3416 14.3842 23.0242C14.7016 22.7067 14.88 22.2761 14.88 21.8271V18.7972C14.88 18.3483 14.7016 17.9176 14.3842 17.6002C14.0667 17.2827 13.6361 17.1043 13.1871 17.1043Z" fill="url(#paint4_linear_1495_1340)"/>
<defs>
<linearGradient id="paint0_linear_1495_1340" x1="16.8" y1="3.59998" x2="23.04" y2="3.59998" gradientUnits="userSpaceOnUse">
<stop stop-color="#FF3E3D"/>
<stop offset="1" stop-color="#466DFD"/>
</linearGradient>
<linearGradient id="paint1_linear_1495_1340" x1="8.15967" y1="7.91998" x2="23.0397" y2="7.91998" gradientUnits="userSpaceOnUse">
<stop stop-color="#FF3E3D"/>
<stop offset="1" stop-color="#466DFD"/>
</linearGradient>
<linearGradient id="paint2_linear_1495_1340" x1="0" y1="12" x2="23.52" y2="12" gradientUnits="userSpaceOnUse">
<stop stop-color="#FF3E3D"/>
<stop offset="1" stop-color="#466DFD"/>
</linearGradient>
<linearGradient id="paint3_linear_1495_1340" x1="0" y1="20.4" x2="6.72" y2="20.4" gradientUnits="userSpaceOnUse">
<stop stop-color="#FF3E3D"/>
<stop offset="1" stop-color="#466DFD"/>
</linearGradient>
<linearGradient id="paint4_linear_1495_1340" x1="0" y1="16.08" x2="14.88" y2="16.08" gradientUnits="userSpaceOnUse">
<stop stop-color="#FF3E3D"/>
<stop offset="1" stop-color="#466DFD"/>
</linearGradient>
</defs>
</svg>
