<svg width="24" height="24" viewBox="0 0 24 24" fill="none" xmlns="http://www.w3.org/2000/svg">
<path d="M22.7812 0.28125H1.21875C0.700195 0.28125 0.28125 0.700195 0.28125 1.21875V22.7812C0.28125 23.2998 0.700195 23.7188 1.21875 23.7188H22.7812C23.2998 23.7188 23.7188 23.2998 23.7188 22.7812V1.21875C23.7188 0.700195 23.2998 0.28125 22.7812 0.28125ZM19.5 6.30762L18.3047 7.45312C18.1992 7.53223 18.1494 7.66113 18.1699 7.78711V16.2158C18.1494 16.3447 18.1992 16.4736 18.3047 16.5498L19.4766 17.6953V17.9502H13.5938V17.707L14.8037 16.5322C14.9238 16.4121 14.9238 16.377 14.9238 16.1982V9.37793L11.5547 17.9209H11.1006L7.18066 9.37793V15.1055C7.14551 15.3457 7.23047 15.5889 7.40039 15.7617L8.97656 17.6689V17.9238H4.5V17.6689L6.07617 15.7617C6.15922 15.6759 6.22102 15.5719 6.25663 15.4579C6.29224 15.344 6.30067 15.2233 6.28125 15.1055V8.48438C6.30176 8.2998 6.23144 8.12109 6.09082 7.99512L4.69043 6.30762V6.05273H9.04102L12.3984 13.4209L15.3545 6.05859H19.5V6.30762Z" fill="white"/>
</svg>
