<svg width="97" height="97" viewBox="0 0 97 97" fill="none" xmlns="http://www.w3.org/2000/svg">
<circle opacity="0.5" cx="48.5" cy="48.5" r="48.5" fill="url(#paint0_radial_173_238)"/>
<g clip-path="url(#clip0_173_238)">
<path d="M46.0185 47.9286C47.8633 46.8634 50.8544 46.8634 52.6992 47.9286L77.1955 62.0712C79.0402 63.1365 79.0402 64.8635 77.1955 65.9288L52.6992 80.0712C50.8544 81.1365 47.8633 81.1365 46.0185 80.0712L21.5223 65.9288C19.6775 64.8635 19.6774 63.1365 21.5223 62.0712L46.0185 47.9286Z" fill="#5EEAD4"/>
<g filter="url(#filter0_f_173_238)">
<path d="M46.0185 46.6428C47.8633 45.5777 50.8544 45.5777 52.6992 46.6428L77.1955 60.7859C79.0402 61.8506 79.0402 63.5777 77.1955 64.6429L52.6992 78.7859C50.8544 79.8506 47.8633 79.8506 46.0185 78.7859L21.5223 64.6429C19.6775 63.5777 19.6774 61.8506 21.5223 60.7859L46.0185 46.6428Z" fill="#5EEAD4"/>
</g>
<path d="M46.0184 42.1428C47.8632 41.0777 50.8543 41.0777 52.6991 42.1428L77.752 56.6071C81.4415 58.7375 81.4415 62.1912 77.752 64.3212L52.6992 78.7858C50.8543 79.8506 47.8632 79.8506 46.0184 78.7858L20.9655 64.3212C17.2758 62.1912 17.2758 58.7375 20.9655 56.6071L46.0184 42.1428Z" fill="url(#paint1_linear_173_238)"/>
<path d="M46.0183 42.7857C47.8631 41.7206 50.8542 41.7206 52.699 42.7857L76.0816 56.2858C77.9268 57.3506 77.9268 59.0777 76.0816 60.1429L52.699 73.6429C50.8542 74.7081 47.8631 74.7081 46.0183 73.6429L22.6356 60.1429C20.7908 59.0777 20.7907 57.3506 22.6356 56.2858L46.0183 42.7857Z" fill="url(#paint2_linear_173_238)"/>
<path d="M46.0183 50.1924C47.8632 49.1273 50.8543 49.1273 52.6991 50.1924L63.6293 56.5032C65.4741 57.568 65.4741 59.2951 63.6293 60.3603L52.6991 66.6709C50.8543 67.7361 47.8632 67.7361 46.0183 66.6709L35.088 60.3603C33.2431 59.2951 33.2431 57.568 35.088 56.5032L46.0183 50.1924Z" fill="url(#paint3_linear_173_238)"/>
<path fill-rule="evenodd" clip-rule="evenodd" d="M58.1274 44.0761C58.2688 44.1514 58.4082 44.2287 58.5455 44.3079C58.6827 44.3872 58.8165 44.4676 58.9469 44.5493C59.2417 44.7339 59.2213 45.0215 58.9016 45.1916C58.5819 45.3618 58.0838 45.3501 57.7891 45.1655C57.6732 45.0929 57.5541 45.0213 57.432 44.9508C57.3099 44.8803 57.1859 44.8115 57.0601 44.7446C56.7404 44.5744 56.7201 44.2869 57.0148 44.1023C57.3095 43.9177 57.8077 43.906 58.1274 44.0761ZM54.6698 43.2158C54.4952 43.4457 54.0309 43.5504 53.6326 43.4496C51.7244 42.9667 49.6479 42.7736 47.6041 42.8708C47.1708 42.8914 46.7905 42.7053 46.7548 42.4551C46.7191 42.2049 47.0415 41.9853 47.4749 41.9647C49.7748 41.8553 52.1134 42.0725 54.2648 42.617C54.6631 42.7178 54.8444 42.9858 54.6698 43.2158ZM61.7547 48.9473C62.1881 48.9267 62.5684 49.1128 62.604 49.363C62.7937 50.6909 62.417 52.0411 61.4741 53.2832C61.2997 53.5131 60.8353 53.6178 60.437 53.517C60.0387 53.4162 59.8573 53.1481 60.0323 52.9182C60.8686 51.8165 61.2032 50.6176 61.0347 49.4376C60.9992 49.1874 61.3214 48.9679 61.7547 48.9473ZM58.9016 54.8709C59.2213 55.041 59.2417 55.3286 58.9469 55.5132C58.8165 55.5949 58.6827 55.6754 58.5455 55.7546C58.4082 55.8339 58.2688 55.9111 58.1274 55.9864C57.8077 56.1566 57.3095 56.1448 57.0148 55.9602C56.7201 55.7757 56.7404 55.4881 57.0601 55.3179C57.1859 55.251 57.3099 55.1823 57.432 55.1117C57.5541 55.0413 57.6732 54.9696 57.7891 54.897C58.0838 54.7125 58.5819 54.7007 58.9016 54.8709ZM40.2499 44.1023C40.5445 44.2869 40.5243 44.5744 40.2046 44.7446C40.0788 44.8115 39.9548 44.8803 39.8327 44.9508C39.7105 45.0213 39.5915 45.0929 39.4756 45.1655C39.1808 45.3501 38.6827 45.3618 38.363 45.1916C38.0433 45.0215 38.023 44.7339 38.3178 44.5493C38.4481 44.4676 38.5819 44.3872 38.7192 44.3079C38.8564 44.2287 38.9958 44.1514 39.1373 44.0761C39.457 43.906 39.9551 43.9177 40.2499 44.1023ZM36.8276 46.5455C37.2258 46.6463 37.4071 46.9144 37.2326 47.1443C36.3962 48.246 36.0616 49.4449 36.23 50.6249C36.2657 50.8751 35.9433 51.0946 35.5099 51.1152C35.0766 51.1359 34.6963 50.9497 34.6606 50.6995C34.4712 49.3716 34.8474 48.0215 35.7904 46.7794C35.965 46.5494 36.4293 46.4447 36.8276 46.5455ZM50.5098 57.6077C50.5455 57.8579 50.2231 58.0771 49.7898 58.0979C47.4898 58.2072 45.1513 57.9899 42.9999 57.4457C42.6016 57.3446 42.4203 57.0765 42.5948 56.8466C42.7694 56.6168 43.2337 56.512 43.632 56.6131C45.5402 57.0959 47.6168 57.2888 49.6605 57.1919C50.0939 57.1711 50.4741 57.3571 50.5098 57.6077ZM38.363 54.8709C38.6827 54.7007 39.1808 54.7125 39.4756 54.897C39.5915 54.9697 39.7105 55.0413 39.8327 55.1117C39.9548 55.1823 40.0788 55.251 40.2046 55.3179C40.5243 55.4881 40.5445 55.7757 40.2499 55.9602C39.9551 56.1448 39.457 56.1566 39.1373 55.9864C38.9958 55.9111 38.8564 55.8339 38.7192 55.7546C38.5819 55.6754 38.4481 55.5949 38.3178 55.5132C38.023 55.3286 38.0433 55.041 38.363 54.8709Z" fill="#12D9E5"/>
<path fill-rule="evenodd" clip-rule="evenodd" d="M63.5044 40.7036C63.7259 40.8216 63.9442 40.9426 64.1593 41.0668C64.3744 41.191 64.5839 41.317 64.7884 41.445C65.0828 41.6296 65.0625 41.9172 64.7431 42.0874C64.4233 42.2575 63.9253 42.2458 63.6304 42.0612C63.4407 41.9423 63.2459 41.8251 63.0456 41.7096C62.8458 41.5942 62.6427 41.4817 62.4368 41.3721C62.117 41.2019 62.0967 40.9144 62.3916 40.7298C62.6865 40.5452 63.1845 40.5335 63.5044 40.7036ZM57.8596 39.0171C57.685 39.247 57.2207 39.3517 56.8224 39.2509C53.6963 38.4598 50.2952 38.1435 46.9484 38.3027C46.5151 38.3233 46.1348 38.1372 46.0991 37.887C46.0634 37.6368 46.3858 37.4172 46.8192 37.3966C50.4222 37.2253 54.0853 37.5656 57.4546 38.4182C57.8528 38.519 58.0342 38.7871 57.8596 39.0171ZM69.6668 48.5688C70.1002 48.5482 70.4805 48.7343 70.5161 48.9845C70.8128 51.0647 70.2235 53.1796 68.7465 55.1248C68.5721 55.3548 68.1078 55.4595 67.7095 55.3587C67.3111 55.2579 67.1298 54.9898 67.3047 54.7599C68.6745 52.955 69.2224 50.9914 68.9468 49.0591C68.9113 48.8089 69.2335 48.5894 69.6668 48.5688ZM34.8729 40.7298C35.1677 40.9144 35.1474 41.2019 34.8277 41.3721C34.6217 41.4817 34.4187 41.5942 34.2188 41.7096C34.0189 41.8251 33.8239 41.9423 33.6341 42.0612C33.3394 42.2458 32.8413 42.2575 32.5216 42.0874C32.2019 41.9172 32.1816 41.6296 32.4763 41.445C32.6806 41.317 32.8903 41.191 33.1053 41.0668C33.3204 40.9426 33.5388 40.8216 33.7604 40.7036C34.0801 40.5335 34.5782 40.5452 34.8729 40.7298ZM64.7431 57.9751C65.0625 58.1454 65.0828 58.4329 64.7884 58.6175C64.5839 58.7454 64.3744 58.8718 64.1593 58.996C63.9442 59.1202 63.7259 59.2411 63.5044 59.3588C63.1845 59.5291 62.6865 59.5175 62.3916 59.3329C62.0967 59.1483 62.117 58.8608 62.4368 58.6905C62.6427 58.5811 62.8458 58.4685 63.0456 58.3531C63.2459 58.2377 63.4407 58.1205 63.6304 58.0014C63.9253 57.8168 64.4233 57.8052 64.7431 57.9751ZM29.555 44.7039C29.9533 44.8047 30.1346 45.0728 29.9601 45.3027C28.5898 47.1076 28.042 49.0712 28.3177 51.0034C28.3534 51.2537 28.031 51.4732 27.5977 51.4938C27.1643 51.5144 26.7841 51.3283 26.7484 51.0781C26.4516 48.9979 27.041 46.883 28.5179 44.9377C28.6924 44.7078 29.1568 44.6031 29.555 44.7039ZM51.1654 62.1755C51.2011 62.4257 50.8788 62.6454 50.4454 62.6662C46.8424 62.8374 43.1793 62.4972 39.81 61.6443C39.4117 61.5437 39.2304 61.2755 39.405 61.0457C39.5795 60.8158 40.0439 60.7111 40.4421 60.8117C43.5683 61.6028 46.9693 61.9189 50.3161 61.7597C50.7495 61.7394 51.1297 61.9254 51.1654 62.1755ZM32.5216 57.9751C32.8413 57.8052 33.3394 57.8168 33.6341 58.0014C33.8239 58.1205 34.0189 58.2377 34.2188 58.3531C34.4187 58.4685 34.6217 58.5811 34.8277 58.6905C35.1474 58.8608 35.1677 59.1483 34.873 59.3329C34.5782 59.5175 34.0801 59.5291 33.7604 59.3588C33.5388 59.2411 33.3204 59.1202 33.1053 58.996C32.8903 58.8718 32.6806 58.7454 32.4763 58.6175C32.1816 58.4329 32.2019 58.1454 32.5216 57.9751Z" fill="#12D9E5"/>
<path fill-rule="evenodd" clip-rule="evenodd" d="M60.2389 43.3302C53.8286 39.6293 43.4357 39.6293 37.0256 43.3302C30.6155 47.0311 30.6155 53.0314 37.0256 56.7321C43.4357 60.4332 53.8286 60.4332 60.2389 56.7321C66.6487 53.0314 66.6487 47.0311 60.2389 43.3302ZM35.9121 42.6874C42.9372 38.6314 54.3271 38.6314 61.3521 42.6874C68.3772 46.7433 68.3772 53.3193 61.3521 57.3751C54.3271 61.4311 42.9372 61.4311 35.9121 57.3751C28.887 53.3193 28.887 46.7433 35.9121 42.6874Z" fill="#12D9E5"/>
<path d="M40 22.8571C40 22.147 40.5756 21.5714 41.2857 21.5714C41.9958 21.5714 42.5714 22.147 42.5714 22.8571V52.4286C42.5714 53.1387 41.9958 53.7143 41.2857 53.7143C40.5756 53.7143 40 53.1387 40 52.4286V22.8571Z" fill="url(#paint4_linear_173_238)" fill-opacity="0.5"/>
<path d="M42.5714 22.8571C42.5714 23.5672 41.9958 24.1428 41.2857 24.1428C40.5756 24.1428 40 23.5672 40 22.8571C40 22.147 40.5756 21.5714 41.2857 21.5714C41.9958 21.5714 42.5714 22.147 42.5714 22.8571Z" fill="#FFC700"/>
<path d="M42.5714 30.5714C42.5714 31.2815 41.9958 31.8571 41.2857 31.8571C40.5756 31.8571 40 31.2815 40 30.5714C40 29.8613 40.5756 29.2857 41.2857 29.2857C41.9958 29.2857 42.5714 29.8613 42.5714 30.5714Z" fill="#FFC700"/>
<path d="M42.5714 38.2857C42.5714 38.9958 41.9958 39.5714 41.2857 39.5714C40.5756 39.5714 40 38.9958 40 38.2857C40 37.5756 40.5756 37 41.2857 37C41.9958 37 42.5714 37.5756 42.5714 38.2857Z" fill="#FFC700"/>
<path d="M55.4292 31.8571C55.4292 31.147 56.0048 30.5714 56.7149 30.5714C57.425 30.5714 58.0006 31.147 58.0006 31.8571V57.5712C58.0006 58.2815 57.425 58.8571 56.7149 58.8571C56.0048 58.8571 55.4292 58.2815 55.4292 57.5712V31.8571Z" fill="url(#paint5_linear_173_238)" fill-opacity="0.5"/>
<path d="M58.0006 31.8571C58.0006 32.5672 57.425 33.1428 56.7149 33.1428C56.0048 33.1428 55.4292 32.5672 55.4292 31.8571C55.4292 31.147 56.0048 30.5714 56.7149 30.5714C57.425 30.5714 58.0006 31.147 58.0006 31.8571Z" fill="#FFC700"/>
<path d="M58.0006 39.5714C58.0006 40.2815 57.425 40.8571 56.7149 40.8571C56.0048 40.8571 55.4292 40.2815 55.4292 39.5714C55.4292 38.8613 56.0048 38.2857 56.7149 38.2857C57.425 38.2857 58.0006 38.8613 58.0006 39.5714Z" fill="#FFC700"/>
<path d="M47.7146 12.5715C47.7146 11.8614 48.2903 11.2857 49.0004 11.2857C49.7104 11.2857 50.2861 11.8614 50.2861 12.5715V52.4286C50.2861 53.1387 49.7104 53.7143 49.0004 53.7143C48.2903 53.7143 47.7146 53.1387 47.7146 52.4286V12.5715Z" fill="url(#paint6_linear_173_238)" fill-opacity="0.5"/>
<path d="M50.2861 12.5715C50.2861 13.2815 49.7104 13.8572 49.0004 13.8572C48.2903 13.8572 47.7146 13.2815 47.7146 12.5715C47.7146 11.8614 48.2903 11.2857 49.0004 11.2857C49.7104 11.2857 50.2861 11.8614 50.2861 12.5715Z" fill="#FFC700"/>
<path d="M50.2861 20.2857C50.2861 20.9958 49.7104 21.5714 49.0004 21.5714C48.2903 21.5714 47.7146 20.9958 47.7146 20.2857C47.7146 19.5756 48.2903 19 49.0004 19C49.7104 19 50.2861 19.5756 50.2861 20.2857Z" fill="#FFC700"/>
<path d="M50.2861 28C50.2861 28.7101 49.7104 29.2858 49.0004 29.2858C48.2903 29.2858 47.7146 28.7101 47.7146 28C47.7146 27.29 48.2903 26.7143 49.0004 26.7143C49.7104 26.7143 50.2861 27.29 50.2861 28Z" fill="#FFC700"/>
<path d="M50.2861 35.7143C50.2861 36.4244 49.7104 37 49.0004 37C48.2903 37 47.7146 36.4244 47.7146 35.7143C47.7146 35.0042 48.2903 34.4286 49.0004 34.4286C49.7104 34.4286 50.2861 35.0042 50.2861 35.7143Z" fill="#FFC700"/>
</g>
<defs>
<filter id="filter0_f_173_238" x="15.1387" y="40.844" width="68.4404" height="43.7404" filterUnits="userSpaceOnUse" color-interpolation-filters="sRGB">
<feFlood flood-opacity="0" result="BackgroundImageFix"/>
<feBlend mode="normal" in="SourceGraphic" in2="BackgroundImageFix" result="shape"/>
<feGaussianBlur stdDeviation="2.5" result="effect1_foregroundBlur_173_238"/>
</filter>
<radialGradient id="paint0_radial_173_238" cx="0" cy="0" r="1" gradientUnits="userSpaceOnUse" gradientTransform="translate(48.5 48.5) rotate(90) scale(48.5)">
<stop stop-color="white" stop-opacity="0"/>
<stop offset="1" stop-color="white" stop-opacity="0.26"/>
</radialGradient>
<linearGradient id="paint1_linear_173_238" x1="83.7114" y1="59.5" x2="31.64" y2="89.5632" gradientUnits="userSpaceOnUse">
<stop stop-color="#626AE9"/>
<stop offset="1" stop-color="#A7B5F6"/>
</linearGradient>
<linearGradient id="paint2_linear_173_238" x1="78.8038" y1="57.3875" x2="34.1712" y2="83.1566" gradientUnits="userSpaceOnUse">
<stop stop-color="#4B4DDC"/>
<stop offset="1" stop-color="#626AE9"/>
</linearGradient>
<linearGradient id="paint3_linear_173_238" x1="66.6077" y1="57.9474" x2="40.4619" y2="73.0429" gradientUnits="userSpaceOnUse">
<stop stop-color="#3F3FC2"/>
<stop offset="1" stop-color="#34359D"/>
</linearGradient>
<linearGradient id="paint4_linear_173_238" x1="41.2857" y1="21.5714" x2="41.2857" y2="53.7143" gradientUnits="userSpaceOnUse">
<stop stop-color="#FFB800"/>
<stop offset="1" stop-color="#FFB800" stop-opacity="0"/>
</linearGradient>
<linearGradient id="paint5_linear_173_238" x1="56.7149" y1="30.5714" x2="56.7149" y2="58.8571" gradientUnits="userSpaceOnUse">
<stop stop-color="#FFB800"/>
<stop offset="1" stop-color="#FFB800" stop-opacity="0"/>
</linearGradient>
<linearGradient id="paint6_linear_173_238" x1="49.0004" y1="11.2857" x2="49.0004" y2="53.7143" gradientUnits="userSpaceOnUse">
<stop stop-color="#FFB800"/>
<stop offset="1" stop-color="#FFB800" stop-opacity="0"/>
</linearGradient>
<clipPath id="clip0_173_238">
<rect width="72" height="72" fill="white" transform="translate(13 10)"/>
</clipPath>
</defs>
</svg>
