<svg width="169" height="168" viewBox="0 0 169 168" fill="none" xmlns="http://www.w3.org/2000/svg">
<rect x="0.5" y="0.5" width="168" height="65" rx="14.5" fill="#4767FB" fill-opacity="0.1"/>
<path d="M43.488 43.88L41.328 40.976C40.688 41.104 40.064 41.168 39.456 41.168C37.872 41.168 36.416 40.8 35.088 40.064C33.776 39.328 32.728 38.304 31.944 36.992C31.176 35.664 30.792 34.176 30.792 32.528C30.792 30.88 31.176 29.4 31.944 28.088C32.728 26.776 33.776 25.752 35.088 25.016C36.416 24.28 37.872 23.912 39.456 23.912C41.04 23.912 42.488 24.28 43.8 25.016C45.128 25.752 46.168 26.776 46.92 28.088C47.688 29.4 48.072 30.88 48.072 32.528C48.072 33.968 47.776 35.288 47.184 36.488C46.608 37.672 45.8 38.656 44.76 39.44L48.456 43.88H43.488ZM34.992 32.528C34.992 34.016 35.392 35.208 36.192 36.104C37.008 36.984 38.096 37.424 39.456 37.424C40.8 37.424 41.872 36.976 42.672 36.08C43.488 35.184 43.896 34 43.896 32.528C43.896 31.04 43.488 29.856 42.672 28.976C41.872 28.08 40.8 27.632 39.456 27.632C38.096 27.632 37.008 28.072 36.192 28.952C35.392 29.832 34.992 31.024 34.992 32.528ZM49.5621 27.296V23.48H56.2101V41H51.9381V27.296H49.5621ZM74.8314 30.872V34.28H64.2714V30.872H74.8314ZM82.9673 37.712C83.5113 37.28 83.7593 37.08 83.7113 37.112C85.2793 35.816 86.5113 34.752 87.4073 33.92C88.3193 33.088 89.0873 32.216 89.7113 31.304C90.3353 30.392 90.6473 29.504 90.6473 28.64C90.6473 27.984 90.4953 27.472 90.1913 27.104C89.8873 26.736 89.4313 26.552 88.8233 26.552C88.2153 26.552 87.7353 26.784 87.3833 27.248C87.0473 27.696 86.8793 28.336 86.8793 29.168H82.9193C82.9513 27.808 83.2393 26.672 83.7833 25.76C84.3433 24.848 85.0713 24.176 85.9673 23.744C86.8793 23.312 87.8873 23.096 88.9913 23.096C90.8953 23.096 92.3273 23.584 93.2873 24.56C94.2633 25.536 94.7513 26.808 94.7513 28.376C94.7513 30.088 94.1673 31.68 92.9993 33.152C91.8313 34.608 90.3433 36.032 88.5353 37.424H95.0153V40.76H82.9673V37.712ZM96.8222 32C96.8222 29.248 97.3502 27.08 98.4062 25.496C99.4782 23.912 101.198 23.12 103.566 23.12C105.934 23.12 107.646 23.912 108.702 25.496C109.774 27.08 110.31 29.248 110.31 32C110.31 34.784 109.774 36.968 108.702 38.552C107.646 40.136 105.934 40.928 103.566 40.928C101.198 40.928 99.4782 40.136 98.4062 38.552C97.3502 36.968 96.8222 34.784 96.8222 32ZM106.278 32C106.278 30.384 106.102 29.144 105.75 28.28C105.398 27.4 104.67 26.96 103.566 26.96C102.462 26.96 101.734 27.4 101.382 28.28C101.03 29.144 100.854 30.384 100.854 32C100.854 33.088 100.918 33.992 101.046 34.712C101.174 35.416 101.43 35.992 101.814 36.44C102.214 36.872 102.798 37.088 103.566 37.088C104.334 37.088 104.91 36.872 105.294 36.44C105.694 35.992 105.958 35.416 106.086 34.712C106.214 33.992 106.278 33.088 106.278 32ZM112.334 37.712C112.878 37.28 113.126 37.08 113.078 37.112C114.646 35.816 115.878 34.752 116.774 33.92C117.686 33.088 118.454 32.216 119.078 31.304C119.702 30.392 120.014 29.504 120.014 28.64C120.014 27.984 119.862 27.472 119.558 27.104C119.254 26.736 118.798 26.552 118.19 26.552C117.582 26.552 117.102 26.784 116.75 27.248C116.414 27.696 116.246 28.336 116.246 29.168H112.286C112.318 27.808 112.606 26.672 113.15 25.76C113.71 24.848 114.438 24.176 115.334 23.744C116.246 23.312 117.254 23.096 118.358 23.096C120.262 23.096 121.694 23.584 122.654 24.56C123.63 25.536 124.118 26.808 124.118 28.376C124.118 30.088 123.534 31.68 122.366 33.152C121.198 34.608 119.71 36.032 117.902 37.424H124.382V40.76H112.334V37.712ZM126.045 37.712C126.589 37.28 126.837 37.08 126.789 37.112C128.357 35.816 129.589 34.752 130.485 33.92C131.397 33.088 132.165 32.216 132.789 31.304C133.413 30.392 133.725 29.504 133.725 28.64C133.725 27.984 133.573 27.472 133.269 27.104C132.965 26.736 132.509 26.552 131.901 26.552C131.293 26.552 130.813 26.784 130.461 27.248C130.125 27.696 129.957 28.336 129.957 29.168H125.997C126.029 27.808 126.317 26.672 126.861 25.76C127.421 24.848 128.149 24.176 129.045 23.744C129.957 23.312 130.965 23.096 132.069 23.096C133.973 23.096 135.405 23.584 136.365 24.56C137.341 25.536 137.829 26.808 137.829 28.376C137.829 30.088 137.245 31.68 136.077 33.152C134.909 34.608 133.421 36.032 131.613 37.424H138.093V40.76H126.045V37.712Z" fill="white"/>
<rect x="0.5" y="0.5" width="168" height="65" rx="14.5" stroke="url(#paint0_linear_109_350)"/>
<circle cx="84" cy="143" r="24" fill="url(#paint1_linear_109_350)" stroke="url(#paint2_linear_109_350)" stroke-width="2"/>
<path d="M79.5614 139.286V147.438C79.5614 147.619 79.4899 147.791 79.3625 147.919C79.2351 148.046 79.0623 148.118 78.8821 148.118C78.7019 148.118 78.5291 148.046 78.4017 147.919C78.2743 147.791 78.2027 147.619 78.2027 147.438V139.286C78.2027 139.106 78.2743 138.933 78.4017 138.806C78.5291 138.678 78.7019 138.607 78.8821 138.607C79.0623 138.607 79.2351 138.678 79.3625 138.806C79.4899 138.933 79.5614 139.106 79.5614 139.286ZM76.1647 138.607C75.9845 138.607 75.8117 138.678 75.6843 138.806C75.5569 138.933 75.4854 139.106 75.4854 139.286V147.438C75.4854 147.619 75.5569 147.791 75.6843 147.919C75.8117 148.046 75.9845 148.118 76.1647 148.118C76.3449 148.118 76.5177 148.046 76.6451 147.919C76.7725 147.791 76.844 147.619 76.844 147.438V139.286C76.844 139.106 76.7725 138.933 76.6451 138.806C76.5177 138.678 76.3449 138.607 76.1647 138.607ZM92.9531 142.878L84.8009 134.726C84.7027 134.634 84.5804 134.571 84.4481 134.546C84.3159 134.52 84.1791 134.533 84.0536 134.582C83.93 134.634 83.8245 134.721 83.7504 134.833C83.6764 134.945 83.6371 135.076 83.6375 135.21V138.607H81.5995C81.4193 138.607 81.2465 138.678 81.1191 138.806C80.9917 138.933 80.9201 139.106 80.9201 139.286V147.438C80.9201 147.619 80.9917 147.791 81.1191 147.919C81.2465 148.046 81.4193 148.118 81.5995 148.118H83.6375V151.514C83.6371 151.649 83.6764 151.78 83.7504 151.892C83.8245 152.003 83.93 152.091 84.0536 152.143C84.1791 152.192 84.3159 152.204 84.4481 152.179C84.5804 152.153 84.7027 152.091 84.8009 151.999L92.9531 143.846C93.0807 143.718 93.1522 143.544 93.1522 143.362C93.1522 143.181 93.0807 143.007 92.9531 142.878Z" fill="white"/>
<rect x="84" y="66" width="1" height="56" fill="url(#paint3_linear_109_350)"/>
<defs>
<linearGradient id="paint0_linear_109_350" x1="0" y1="33" x2="169" y2="33" gradientUnits="userSpaceOnUse">
<stop stop-color="#FF3E3D"/>
<stop offset="1" stop-color="#466DFD"/>
</linearGradient>
<linearGradient id="paint1_linear_109_350" x1="59" y1="143" x2="109" y2="143" gradientUnits="userSpaceOnUse">
<stop stop-color="#FF3E3D"/>
<stop offset="1" stop-color="#466DFD"/>
</linearGradient>
<linearGradient id="paint2_linear_109_350" x1="59" y1="143" x2="109" y2="143" gradientUnits="userSpaceOnUse">
<stop stop-color="#FF3E3D"/>
<stop offset="1" stop-color="#466DFD"/>
</linearGradient>
<linearGradient id="paint3_linear_109_350" x1="84" y1="94" x2="85" y2="94" gradientUnits="userSpaceOnUse">
<stop stop-color="#FF3E3D"/>
<stop offset="1" stop-color="#466DFD"/>
</linearGradient>
</defs>
</svg>
