<svg width="26" height="26" viewBox="0 0 26 26" fill="none" xmlns="http://www.w3.org/2000/svg">
<path d="M19.25 14.25H14.25V19.25H11.75V14.25H6.75V11.75H11.75V6.75H14.25V11.75H19.25V14.25ZM13 0.5C11.3585 0.5 9.73303 0.823322 8.21646 1.45151C6.69989 2.07969 5.3219 3.00043 4.16116 4.16117C1.81696 6.50537 0.5 9.68479 0.5 13C0.5 16.3152 1.81696 19.4946 4.16116 21.8388C5.3219 22.9996 6.69989 23.9203 8.21646 24.5485C9.73303 25.1767 11.3585 25.5 13 25.5C16.3152 25.5 19.4946 24.183 21.8388 21.8388C24.183 19.4946 25.5 16.3152 25.5 13C25.5 11.3585 25.1767 9.73303 24.5485 8.21646C23.9203 6.69989 22.9996 5.3219 21.8388 4.16117C20.6781 3.00043 19.3001 2.07969 17.7835 1.45151C16.267 0.823322 14.6415 0.5 13 0.5Z" fill="url(#paint0_radial_122_134)"/>
<defs>
<radialGradient id="paint0_radial_122_134" cx="0" cy="0" r="1" gradientUnits="userSpaceOnUse" gradientTransform="translate(13 13) rotate(90) scale(12.5)">
<stop stop-color="white" stop-opacity="0.46"/>
<stop offset="1" stop-color="#7C93FF" stop-opacity="0.26"/>
</radialGradient>
</defs>
</svg>
