<svg width="100" height="100" viewBox="0 0 100 100" fill="none" xmlns="http://www.w3.org/2000/svg">
<path d="M100 50C100 63.2608 94.7322 75.9785 85.3553 85.3553C75.9785 94.7322 63.2608 100 50 100C36.7392 100 24.0215 94.7322 14.6447 85.3553C5.26784 75.9785 0 63.2608 0 50C0 36.7392 5.26784 24.0215 14.6447 14.6447C24.0215 5.26784 36.7392 0 50 0C63.2608 0 75.9785 5.26784 85.3553 14.6447C94.7322 24.0215 100 36.7392 100 50ZM42.4375 31.8312C41.9702 31.4986 41.4204 31.3009 40.8483 31.2599C40.2761 31.2189 39.7037 31.3362 39.1938 31.5989C38.6839 31.8616 38.2561 32.2596 37.9573 32.7493C37.6586 33.2389 37.5004 33.8014 37.5 34.375V65.625C37.5004 66.1986 37.6586 66.7611 37.9573 67.2507C38.2561 67.7404 38.6839 68.1384 39.1938 68.4011C39.7037 68.6638 40.2761 68.7811 40.8483 68.7401C41.4204 68.6991 41.9702 68.5014 42.4375 68.1687L64.3125 52.5437C64.7176 52.2547 65.0478 51.873 65.2756 51.4306C65.5034 50.9881 65.6223 50.4977 65.6223 50C65.6223 49.5023 65.5034 49.0119 65.2756 48.5694C65.0478 48.127 64.7176 47.7453 64.3125 47.4562L42.4375 31.8312Z" fill="#466DFD"/>
</svg>
