<svg width="107" height="109" viewBox="0 0 107 109" fill="none" xmlns="http://www.w3.org/2000/svg">
<path d="M105.585 60.8596L103.535 58.0529C101.842 55.7363 101.82 52.5954 103.468 50.2342L105.473 47.4052C107.79 44.1085 106.721 39.542 103.157 37.6263L100.105 35.9779C97.5654 34.6191 96.1843 31.7901 96.6521 28.9611L97.2312 25.5307C97.8995 21.5657 94.9369 17.8902 90.905 17.7343L87.43 17.5783C84.5565 17.467 82.0839 15.5067 81.282 12.7446L80.3241 9.40324C79.2104 5.5273 74.9557 3.52251 71.2357 5.12634L68.0503 6.50742C65.3995 7.64347 62.3478 6.97521 60.4098 4.81448L58.0932 2.23053C55.3978 -0.776665 50.6977 -0.732114 48.0469 2.29735L45.7748 4.92586C43.8814 7.08658 40.8297 7.82168 38.1789 6.73018L34.9712 5.41592C31.2512 3.87891 27.0189 5.95053 25.9496 9.84875L25.0363 13.1901C24.3013 15.9968 21.8732 17.9793 18.9997 18.1352L15.5247 18.3357C11.4928 18.5585 8.59703 22.2785 9.33212 26.2212L9.95583 29.6294C10.4682 32.4584 9.13164 35.3096 6.61451 36.6907L3.58504 38.3837C0.0655136 40.3439 -0.959159 44.9326 1.42432 48.1849L3.47366 50.9916C5.1666 53.3082 5.18888 56.4491 3.54049 58.8103L1.5357 61.6393C-0.780955 64.936 0.288269 69.5025 3.85235 71.4182L6.90409 73.0666C9.4435 74.4254 10.8246 77.2544 10.3568 80.0834L9.75535 83.4915C9.08709 87.4566 12.0497 91.132 16.0816 91.2879L19.5566 91.4439C22.4301 91.5553 24.9027 93.5155 25.7046 96.2777L26.6625 99.619C27.7762 103.495 32.0308 105.5 35.7509 103.896L38.9363 102.515C41.587 101.379 44.6388 102.047 46.5767 104.185L48.8934 106.769C51.5887 109.777 56.2889 109.732 58.9396 106.703L61.2117 104.074C63.1052 101.913 66.1569 101.178 68.8077 102.27L72.0154 103.584C75.7354 105.121 79.9677 103.049 81.0369 99.1512L81.9502 95.8099C82.7076 93.0477 85.1579 91.0652 88.0314 90.887L91.5064 90.6865C95.5383 90.4638 98.4341 86.7438 97.699 82.801L97.0753 79.3928C96.563 76.5638 97.8995 73.7126 100.417 72.3315L103.446 70.6386C106.943 68.7229 107.946 64.1118 105.585 60.8596ZM53.5044 89.7064C34.0802 89.7064 18.3314 73.9576 18.3314 54.5334C18.3314 35.1092 34.0802 19.3604 53.5044 19.3604C72.9286 19.3604 88.6774 35.1092 88.6774 54.5334C88.6774 73.9576 72.9286 89.7064 53.5044 89.7064Z" fill="url(#paint0_linear_275_6217)"/>
<path d="M49.0047 55.4689L45.8861 52.328C44.0372 50.4569 41.0078 50.4569 39.1366 52.3057C37.2655 54.1546 37.2655 57.1841 39.1143 59.0552L42.2329 62.1961L45.7079 65.671C47.5122 67.4976 50.4526 67.4976 52.2792 65.6933L55.7541 62.2406L67.872 50.1896C69.7431 48.3407 69.7431 45.3112 67.8943 43.4401C66.0454 41.5689 63.0159 41.5689 61.1448 43.4178L49.0047 55.4689Z" fill="url(#paint1_linear_275_6217)"/>
<defs>
<linearGradient id="paint0_linear_275_6217" x1="0.13208" y1="54.5" x2="106.868" y2="54.5" gradientUnits="userSpaceOnUse">
<stop stop-color="#FF3E3D"/>
<stop offset="1" stop-color="#466DFD"/>
</linearGradient>
<linearGradient id="paint1_linear_275_6217" x1="37.7305" y1="54.5389" x2="69.2782" y2="54.5389" gradientUnits="userSpaceOnUse">
<stop stop-color="#FF3E3D"/>
<stop offset="1" stop-color="#466DFD"/>
</linearGradient>
</defs>
</svg>
