<svg width="18" height="18" viewBox="0 0 18 18" fill="none" xmlns="http://www.w3.org/2000/svg">
<path fill-rule="evenodd" clip-rule="evenodd" d="M8.99971 0.199951C4.13971 0.199951 0.199707 4.13995 0.199707 8.99995C0.199707 13.86 4.13971 17.8 8.99971 17.8C13.8597 17.8 17.7997 13.86 17.7997 8.99995C17.7997 4.13995 13.8597 0.199951 8.99971 0.199951ZM12.8141 7.51195C12.8843 7.43167 12.9378 7.33814 12.9714 7.23689C13.0049 7.13563 13.0179 7.02868 13.0095 6.92234C13.0011 6.816 12.9716 6.7124 12.9226 6.61765C12.8736 6.52291 12.8061 6.43892 12.7241 6.37062C12.6422 6.30233 12.5474 6.25112 12.4454 6.22C12.3434 6.18888 12.2361 6.17848 12.13 6.18941C12.0239 6.20035 11.921 6.23239 11.8275 6.28366C11.734 6.33493 11.6516 6.40439 11.5853 6.48795L8.14531 10.6152L6.36531 8.83435C6.21443 8.68863 6.01234 8.60799 5.80259 8.60981C5.59283 8.61164 5.39218 8.69577 5.24385 8.8441C5.09553 8.99242 5.01139 9.19307 5.00957 9.40283C5.00774 9.61259 5.08838 9.81467 5.23411 9.96555L7.63411 12.3656C7.71271 12.4441 7.80682 12.5054 7.91044 12.5456C8.01406 12.5858 8.12491 12.6039 8.23592 12.5989C8.34694 12.5938 8.45569 12.5657 8.55524 12.5163C8.65478 12.4669 8.74295 12.3973 8.81411 12.312L12.8141 7.51195Z" fill="url(#paint0_linear_109_243)"/>
<defs>
<linearGradient id="paint0_linear_109_243" x1="0.199707" y1="8.99995" x2="17.7997" y2="8.99995" gradientUnits="userSpaceOnUse">
<stop stop-color="#FF3E3D"/>
<stop offset="1" stop-color="#466DFD"/>
</linearGradient>
</defs>
</svg>
