<svg width="14" height="16" viewBox="0 0 14 16" fill="none" xmlns="http://www.w3.org/2000/svg">
<path d="M7 14.5C5.60761 14.5 4.27226 13.9469 3.28769 12.9623C2.30312 11.9777 1.75 10.6424 1.75 9.25C1.75 7.85761 2.30312 6.52226 3.28769 5.53769C4.27226 4.55312 5.60761 4 7 4C8.39239 4 9.72774 4.55312 10.7123 5.53769C11.6969 6.52226 12.25 7.85761 12.25 9.25C12.25 10.6424 11.6969 11.9777 10.7123 12.9623C9.72774 13.9469 8.39239 14.5 7 14.5ZM12.2725 5.0425L13.3375 3.9775C13 3.595 12.6625 3.25 12.28 2.92L11.215 4C10.0525 3.055 8.59 2.5 7 2.5C5.20979 2.5 3.4929 3.21116 2.22703 4.47703C0.961159 5.7429 0.25 7.45979 0.25 9.25C0.25 11.0402 0.961159 12.7571 2.22703 14.023C3.4929 15.2888 5.20979 16 7 16C10.75 16 13.75 12.9775 13.75 9.25C13.75 7.66 13.195 6.1975 12.2725 5.0425ZM6.25 10H7.75V5.5H6.25V10ZM9.25 0.25H4.75V1.75H9.25V0.25Z" fill="#81A9D8"/>
</svg>
