<svg width="26" height="20" viewBox="0 0 26 20" fill="none" xmlns="http://www.w3.org/2000/svg">
<path d="M25.1875 2.45021C24.291 2.83693 23.3154 3.11525 22.3105 3.22365C23.3538 2.60383 24.1351 1.62462 24.5078 0.469739C23.5288 1.05213 22.4563 1.46051 21.3379 1.67677C20.8704 1.17704 20.3051 0.778938 19.677 0.507261C19.049 0.235584 18.3717 0.0961569 17.6875 0.0976684C14.9189 0.0976684 12.6924 2.34181 12.6924 5.09572C12.6924 5.48244 12.7392 5.86916 12.8154 6.24123C8.66991 6.02443 4.97265 4.04396 2.51465 1.01173C2.06677 1.77672 1.83207 2.64775 1.83496 3.53419C1.83496 5.26857 2.71679 6.79787 4.06152 7.69729C3.26905 7.66608 2.49514 7.44826 1.80273 7.06154V7.12307C1.80273 9.55178 3.51953 11.5645 5.80761 12.0274C5.378 12.139 4.93605 12.1961 4.49218 12.1973C4.16699 12.1973 3.85937 12.1651 3.54882 12.1211C4.18164 14.1016 6.02441 15.5401 8.21874 15.5869C6.50195 16.9317 4.35156 17.7227 2.0166 17.7227C1.59766 17.7227 1.21094 17.708 0.80957 17.6612C3.02441 19.0821 5.65234 19.9024 8.48241 19.9024C17.6699 19.9024 22.6972 12.291 22.6972 5.68459C22.6972 5.46779 22.6972 5.25099 22.6826 5.0342C23.6552 4.32228 24.5078 3.44045 25.1875 2.45021Z" fill="white"/>
</svg>
