<svg width="19" height="18" viewBox="0 0 19 18" fill="none" xmlns="http://www.w3.org/2000/svg">
<path d="M16.3489 9.12694H9.36456V2.14256C9.36456 2.05663 9.29425 1.98631 9.20831 1.98631H8.7005C7.67566 1.98527 6.6607 2.18659 5.71386 2.57874C4.76701 2.97088 3.90692 3.54613 3.18292 4.27147C2.4701 4.98209 1.90227 5.82455 1.51105 6.75194C1.1048 7.71483 0.897766 8.73632 0.897766 9.79101C0.897766 10.8457 1.1048 11.8652 1.51105 12.8281C1.90363 13.7559 2.46613 14.5918 3.18292 15.3086C3.89972 16.0254 4.7337 16.5879 5.66339 16.9805C6.6246 17.3883 7.65832 17.5975 8.70245 17.5957C9.72729 17.5968 10.7422 17.3954 11.6891 17.0033C12.6359 16.6111 13.496 16.0359 14.22 15.3105C14.9368 14.5937 15.4993 13.7598 15.8919 12.8301C16.2997 11.8689 16.509 10.8351 16.5071 9.79101V9.2832C16.5052 9.19726 16.4349 9.12694 16.3489 9.12694ZM18.0657 8.04296L18.015 7.49218C17.8489 5.6953 17.0521 3.99999 15.7669 2.72069C14.4829 1.4378 12.791 0.643991 10.9837 0.476545L10.431 0.425764C10.3392 0.417952 10.261 0.488264 10.261 0.580061V8.07421C10.261 8.16015 10.3314 8.23046 10.4173 8.23046L17.9095 8.21093C18.0013 8.20898 18.0735 8.1328 18.0657 8.04296Z" fill="#81A9D8"/>
</svg>
